<?xml version="1.0" standalone="no"?>
<!DOCTYPE svg PUBLIC "-//W3C//DTD SVG 20010904//EN"
 "http://www.w3.org/TR/2001/REC-SVG-20010904/DTD/svg10.dtd">
<svg version="1.0" xmlns="http://www.w3.org/2000/svg"
 width="1254.000000pt" height="1254.000000pt" viewBox="0 0 1254.000000 1254.000000"
 preserveAspectRatio="xMidYMid meet">

<g transform="translate(0.000000,1254.000000) scale(0.100000,-0.100000)"
fill="#000000" stroke="none">
<path d="M6160 8308 c-142 -100 -301 -257 -358 -354 -108 -182 -120 -347 -35
-492 48 -81 149 -169 344 -298 226 -150 287 -203 328 -286 55 -109 32 -209
-71 -311 -84 -83 -182 -141 -513 -308 -170 -85 -358 -185 -416 -221 -380 -233
-616 -505 -722 -833 -70 -213 -79 -388 -36 -661 l11 -71 71 -34 c39 -19 130
-73 202 -121 492 -327 799 -729 1030 -1350 53 -143 166 -501 196 -621 12 -49
25 -85 29 -80 4 4 26 58 50 118 64 164 180 397 258 515 270 413 671 731 1137
905 55 20 102 38 103 40 2 2 -8 52 -23 112 -51 205 -139 396 -306 663 -174
279 -221 392 -221 535 -1 194 71 331 309 590 284 308 367 461 367 675 0 173
-59 305 -204 451 -152 152 -355 268 -725 413 -121 48 -278 110 -350 138 -245
95 -408 188 -489 278 -155 171 -122 395 91 620 36 39 64 70 62 70 -2 0 -56
-37 -119 -82z m-200 -291 c0 -1 -9 -28 -20 -60 -24 -68 -26 -173 -5 -243 18
-61 18 -64 1 -64 -37 0 -67 139 -48 226 14 63 48 144 62 144 5 0 10 -1 10 -3z
m91 -473 c29 -31 189 -138 282 -189 68 -37 69 -37 46 -53 -22 -15 -27 -13
-115 32 -97 51 -245 160 -264 196 -23 43 13 54 51 14z m677 -393 c113 -66 202
-128 202 -142 0 -8 -77 -25 -90 -20 -3 1 -37 25 -76 54 -39 30 -105 73 -147
98 -42 24 -77 47 -77 51 0 8 26 15 60 17 14 0 70 -25 128 -58z m412 -386 c33
-66 35 -75 35 -172 0 -59 -4 -106 -11 -113 -7 -7 -32 -7 -84 0 -41 6 -76 12
-78 15 -3 2 2 19 9 37 21 50 16 172 -9 238 -12 30 -22 56 -22 57 0 3 91 10
110 9 8 -1 31 -33 50 -71z m-177 -476 c32 -7 60 -17 64 -22 8 -14 -99 -119
-221 -215 l-109 -86 -94 25 c-51 13 -94 29 -95 34 -1 6 53 48 119 95 66 47
149 109 184 137 35 29 71 51 79 49 8 -3 41 -10 73 -17z m-600 -480 c45 -11 85
-23 89 -26 5 -2 -12 -28 -38 -56 -73 -82 -131 -168 -175 -261 -34 -73 -44 -86
-64 -86 -52 0 -230 22 -238 30 -10 9 41 112 96 195 52 78 201 225 228 225 11
0 57 -9 102 -21z m-278 -698 l70 -6 7 -115 c3 -64 19 -171 34 -240 15 -69 28
-138 28 -155 l1 -30 -156 -3 c-121 -2 -159 1 -167 11 -27 33 -60 500 -38 536
8 12 104 13 221 2z m238 -893 c30 -24 183 -629 175 -696 l-3 -27 -185 -3
c-102 -1 -195 0 -206 3 -20 4 -23 16 -34 122 -12 118 -56 398 -83 525 -10 47
-11 70 -4 77 16 16 318 15 340 -1z"/>
<path d="M2948 5005 c-19 -13 -40 -37 -46 -52 -11 -31 -603 -1256 -1061 -2197
-119 -244 -121 -249 -121 -317 0 -120 45 -190 134 -210 41 -9 98 -7 291 10
300 26 706 56 980 73 283 17 1097 17 1275 0 413 -40 760 -121 996 -232 78 -36
204 -114 204 -126 0 -4 -11 -19 -25 -36 -50 -59 -24 -150 67 -233 280 -256
929 -268 1238 -22 101 80 141 198 87 255 -15 16 -27 31 -27 34 0 17 176 116
283 158 213 85 405 132 719 174 287 39 507 49 938 43 453 -7 867 -31 1519 -88
128 -12 253 -18 278 -14 95 14 148 100 141 227 -4 70 -10 84 -142 353 -174
354 -591 1212 -856 1762 -148 307 -211 428 -229 440 -19 13 -52 19 -123 21
-54 2 -98 1 -98 -2 0 -7 563 -1299 714 -1639 58 -132 104 -242 101 -247 -5 -8
29 -91 99 -243 42 -92 45 -121 12 -142 -21 -14 -35 -14 -137 -1 -1634 213
-2729 65 -3341 -451 -86 -73 -181 -186 -210 -250 -15 -34 -28 -46 -71 -66 -63
-29 -89 -36 -186 -47 -137 -15 -330 19 -384 67 -10 10 -30 38 -42 63 -83 161
-316 350 -597 484 -216 103 -403 163 -693 220 -529 105 -1308 100 -2203 -14
-84 -11 -159 -20 -167 -20 -20 0 -45 28 -45 52 0 11 32 92 70 179 39 87 70
167 70 177 0 11 54 143 121 293 186 422 663 1518 686 1577 4 9 -18 12 -89 12
-83 0 -97 -3 -130 -25z"/>
<path d="M3903 4671 c-33 -21 -40 -38 -89 -221 -9 -36 -21 -71 -27 -77 -7 -10
-58 -13 -194 -13 -214 0 -232 -5 -257 -72 -71 -190 -83 -287 -42 -335 l24 -28
181 -3 c100 -2 181 -4 181 -6 0 -1 -11 -40 -25 -86 -33 -111 -33 -182 0 -215
24 -25 25 -25 224 -25 l201 0 30 28 c26 23 35 45 63 162 l33 135 194 5 c199 5
229 11 249 48 5 9 19 66 31 126 27 136 22 215 -17 246 -23 18 -41 20 -195 20
-157 0 -169 1 -164 18 40 133 42 240 6 284 -18 22 -25 23 -197 26 -163 2 -181
1 -210 -17z m230 -112 c20 -33 37 -65 37 -70 0 -5 -49 -9 -110 -9 -60 0 -110
3 -110 7 0 7 132 132 140 132 3 1 22 -26 43 -60z m-526 -359 c-12 -44 -26 -80
-33 -80 -17 0 -156 81 -150 87 10 10 191 80 198 77 3 -2 -3 -40 -15 -84z m874
43 c38 -21 69 -40 69 -43 0 -8 -187 -89 -192 -84 -2 2 3 39 12 84 10 54 19 80
29 80 7 0 45 -17 82 -37z m-451 -333 c0 -9 -73 -81 -122 -119 l-26 -21 -41 66
c-23 36 -41 69 -41 75 0 5 50 9 115 9 67 0 115 -4 115 -10z"/>
<path d="M8350 4469 c0 -11 4 -18 10 -14 5 3 7 12 3 20 -7 21 -13 19 -13 -6z"/>
<path d="M8760 4448 c0 -7 -15 -24 -33 -37 l-32 -23 27 5 c24 4 26 2 17 -14
-15 -29 -51 -49 -120 -64 l-64 -15 54 6 c65 6 100 23 135 64 22 27 37 90 21
90 -3 0 -5 -6 -5 -12z"/>
<path d="M8415 4359 c8 -12 75 -42 81 -36 2 2 -17 13 -42 25 -25 12 -42 17
-39 11z"/>
<path d="M8518 4313 c7 -3 16 -2 19 1 4 3 -2 6 -13 5 -11 0 -14 -3 -6 -6z"/>
<path d="M7980 4114 c0 -14 4 -23 9 -20 5 3 7 15 4 26 -7 28 -13 25 -13 -6z"/>
<path d="M8401 4118 c0 -9 -20 -33 -43 -53 -36 -30 -38 -35 -16 -26 15 6 30 7
32 2 8 -12 -22 -37 -74 -61 -43 -21 -44 -21 -11 -16 71 12 130 87 118 148 -2
14 -5 16 -6 6z"/>
<path d="M8855 4090 c5 -34 35 -74 70 -92 11 -6 5 4 -12 20 -40 37 -40 41 -7
37 14 -1 22 0 17 4 -4 3 -22 19 -40 35 l-32 29 4 -33z m25 -5 c7 -9 8 -15 2
-15 -5 0 -12 7 -16 15 -3 8 -4 15 -2 15 2 0 9 -7 16 -15z"/>
<path d="M9261 4102 c0 -7 -13 -24 -28 -38 -27 -25 -27 -25 -5 -21 22 5 23 4
9 -16 -27 -41 -76 -61 -147 -62 -36 0 -78 3 -95 8 -27 6 -28 6 -10 -5 32 -20
153 -16 203 6 50 23 85 73 79 113 -2 16 -5 22 -6 15z"/>
<path d="M7990 4071 c0 -6 4 -13 10 -16 6 -3 7 1 4 9 -7 18 -14 21 -14 7z"/>
<path d="M8024 4022 c22 -26 95 -62 122 -61 10 0 0 6 -24 14 -23 7 -59 26 -80
41 -28 21 -32 22 -18 6z"/>
<path d="M8188 3953 c12 -2 32 -2 45 0 12 2 2 4 -23 4 -25 0 -35 -2 -22 -4z"/>
<path d="M8480 3774 c0 -14 4 -23 9 -20 5 3 7 15 4 26 -7 28 -13 25 -13 -6z"/>
<path d="M8901 3738 c-1 -10 -26 -29 -63 -47 -33 -17 -53 -31 -42 -31 10 0 26
4 34 10 9 6 17 5 21 -2 4 -6 13 1 23 18 8 16 15 24 16 19 0 -22 -31 -54 -48
-49 -13 5 -14 4 -3 -4 10 -7 2 -14 -33 -27 -45 -17 -147 -18 -201 -1 -11 3 -6
0 10 -8 49 -24 163 -21 215 7 46 24 85 82 77 114 -4 16 -5 16 -6 1z"/>
<path d="M8490 3731 c0 -20 46 -79 73 -92 14 -7 11 -1 -10 17 -18 16 -39 43
-48 59 -8 17 -15 24 -15 16z"/>
<path d="M8683 3653 c9 -2 23 -2 30 0 6 3 -1 5 -18 5 -16 0 -22 -2 -12 -5z"/>
</g>
</svg>
