<svg xmlns="http://www.w3.org/2000/svg" xmlns:xlink="http://www.w3.org/1999/xlink" contentStyleType="text/css" data-diagram-type="ACTIVITY" height="1861px" preserveAspectRatio="none" style="width:1755px;height:1861px;background:#FBFCFE;" version="1.1" viewBox="0 0 1755 1861" width="1755px" zoomAndPan="magnify"><title>Jornada do Conhecimento</title><defs/><g><rect fill="#FBFCFE" height="1861" style="stroke:none;stroke-width:1;" width="1755" x="0" y="0"/><g class="title" data-source-line="76"><text fill="#17324D" font-family="Arial" font-size="20" font-weight="bold" lengthAdjust="spacing" textLength="252.2461" x="750.2595" y="38.7598">Jornada do Conhecimento</text><text fill="#17324D" font-family="Arial" font-size="20" font-weight="bold" lengthAdjust="spacing" textLength="374.6094" x="689.0779" y="61.7578">Professor 2/6 - Gerenciamento de salas</text></g><rect fill="#E9F3F6" height="16.0986" style="stroke:#E9F3F6;stroke-width:1;" width="1722.7651" x="15" y="78.4629"/><rect fill="#FFF4D6" height="1755.46" style="stroke:#FFF4D6;stroke-width:1;" width="454.0432" x="15" y="78.4629"/><ellipse cx="289.2129" cy="109.5615" fill="#222222" rx="10" ry="10" style="stroke:#222222;stroke-width:1;"/><rect fill="#F4FAFC" height="36.0986" rx="6" ry="6" style="stroke:#2D6478;stroke-width:0.5;" width="146.8271" x="215.7993" y="139.5615"/><text fill="#172433" font-family="Arial" font-size="14" lengthAdjust="spacing" textLength="126.8271" x="225.7993" y="162.6934">Abrir Gerenciar Sala</text><rect fill="#F4FAFC" height="36.0986" rx="6" ry="6" style="stroke:#2D6478;stroke-width:0.5;" width="167.8613" x="205.2822" y="239.6602"/><text fill="#172433" font-family="Arial" font-size="14" lengthAdjust="spacing" textLength="147.8613" x="215.2822" y="262.792">Escolher uma opera&#231;&#227;o</text><rect fill="#F4FAFC" height="52.1973" rx="6" ry="6" style="stroke:#2D6478;stroke-width:0.5;" width="190.4131" x="274.6301" y="319.7588"/><text fill="#172433" font-family="Arial" font-size="14" lengthAdjust="spacing" textLength="170.4131" x="284.6301" y="342.8906">Informar um nome opcional</text><text fill="#172433" font-family="Arial" font-size="14" lengthAdjust="spacing" textLength="119.8271" x="284.6301" y="358.9893">e solicitar a cria&#231;&#227;o</text><rect fill="#F4FAFC" height="36.0986" rx="6" ry="6" style="stroke:#2D6478;stroke-width:0.5;" width="183.4131" x="266.2612" y="752.6465"/><text fill="#172433" font-family="Arial" font-size="14" lengthAdjust="spacing" textLength="163.4131" x="276.2612" y="775.7783">Escolher uma sala da lista</text><polygon fill="#FFF4D6" points="75.9102,295.7588,143.5996,295.7588,155.5996,307.7588,143.5996,319.7588,75.9102,319.7588,63.9102,307.7588,75.9102,295.7588" style="stroke:#B87716;stroke-width:0.5;"/><text fill="#000000" font-family="Arial" font-size="14" lengthAdjust="spacing" textLength="67.6895" x="75.9102" y="312.8413">Criar sala?</text><text fill="#000000" font-family="Arial" font-size="14" lengthAdjust="spacing" textLength="21.7725" x="155.5996" y="304.792">sim</text><polygon fill="#FFF4D6" points="58,728.6465,161.5098,728.6465,173.5098,740.6465,161.5098,752.6465,58,752.6465,46,740.6465,58,728.6465" style="stroke:#B87716;stroke-width:0.5;"/><text fill="#000000" font-family="Arial" font-size="14" lengthAdjust="spacing" textLength="103.5098" x="58" y="745.729">Selecionar sala?</text><text fill="#000000" font-family="Arial" font-size="14" lengthAdjust="spacing" textLength="21.7725" x="173.5098" y="737.6797">sim</text><polygon fill="#FFF4D6" points="64.2344,937.041,155.2754,937.041,167.2754,949.041,155.2754,961.041,64.2344,961.041,52.2344,949.041,64.2344,937.041" style="stroke:#B87716;stroke-width:0.5;"/><text fill="#000000" font-family="Arial" font-size="14" lengthAdjust="spacing" textLength="91.041" x="64.2344" y="954.1235">Atualizar lista?</text><text fill="#000000" font-family="Arial" font-size="14" lengthAdjust="spacing" textLength="21.7725" x="167.2754" y="946.0742">sim</text><rect fill="#F4FAFC" height="36.0986" rx="6" ry="6" style="stroke:#2D6478;stroke-width:0.5;" width="223.8955" x="230.49" y="1216.9517"/><text fill="#172433" font-family="Arial" font-size="14" lengthAdjust="spacing" textLength="203.8955" x="240.49" y="1240.0835">Solicitar a exclus&#227;o da sala atual</text><polygon fill="#FFF4D6" points="289.2129,1709.291,301.2129,1721.291,289.2129,1733.291,277.2129,1721.291,289.2129,1709.291" style="stroke:#B87716;stroke-width:0.5;"/><polygon fill="#FFF4D6" points="289.2129,195.6602,301.2129,207.6602,289.2129,219.6602,277.2129,207.6602,289.2129,195.6602" style="stroke:#B87716;stroke-width:0.5;"/><polygon fill="#FFF4D6" points="221.8994,1753.291,356.5264,1753.291,368.5264,1765.291,356.5264,1777.291,221.8994,1777.291,209.8994,1765.291,221.8994,1753.291" style="stroke:#B87716;stroke-width:0.5;"/><text fill="#000000" font-family="Arial" font-size="14" lengthAdjust="spacing" textLength="23.3584" x="293.2129" y="1790.4229">n&#227;o</text><text fill="#3A3428" font-family="Arial" font-size="14" lengthAdjust="spacing" textLength="134.627" x="221.8994" y="1770.3735">Gerenciar outra sala?</text><text fill="#000000" font-family="Arial" font-size="14" lengthAdjust="spacing" textLength="21.7725" x="368.5264" y="1762.3242">sim</text><ellipse cx="289.2129" cy="1822.9229" fill="none" rx="11" ry="11" style="stroke:#222222;stroke-width:1;"/><ellipse cx="289.2129" cy="1822.9229" fill="#222222" rx="6" ry="6" style="stroke:#222222;stroke-width:1;"/><line style="stroke:#9DB1BC;stroke-width:1.5;" x1="15" x2="15" y1="78.4629" y2="1833.9229"/><rect fill="#EAF5F8" height="1755.46" style="stroke:#EAF5F8;stroke-width:1;" width="777.7334" x="469.0432" y="78.4629"/><rect fill="#F4FAFC" height="36.0986" rx="6" ry="6" style="stroke:#2D6478;stroke-width:0.5;" width="191.1992" x="838.9341" y="391.9561"/><text fill="#172433" font-family="Arial" font-size="14" lengthAdjust="spacing" textLength="171.1992" x="848.9341" y="415.0879">Enviar professor_id e nome</text><polygon fill="#FFF4D6" points="869.9478,592.4492,999.1196,592.4492,1011.1196,604.4492,999.1196,616.4492,869.9478,616.4492,857.9478,604.4492,869.9478,592.4492" style="stroke:#B87716;stroke-width:0.5;"/><text fill="#3A3428" font-family="Arial" font-size="14" lengthAdjust="spacing" textLength="129.1719" x="869.9478" y="609.5317">Cria&#231;&#227;o confirmada?</text><text fill="#000000" font-family="Arial" font-size="14" lengthAdjust="spacing" textLength="21.7725" x="836.1753" y="601.4824">sim</text><text fill="#000000" font-family="Arial" font-size="14" lengthAdjust="spacing" textLength="23.3584" x="1011.1196" y="601.4824">n&#227;o</text><rect fill="#EAF7EF" height="52.1973" rx="6" ry="6" style="stroke:#2D6478;stroke-width:0.5;" width="208.3232" x="728.0793" y="626.4492"/><text fill="#172433" font-family="Arial" font-size="14" lengthAdjust="spacing" textLength="188.3232" x="738.0793" y="649.5811">Definir a nova sala como atual</text><text fill="#172433" font-family="Arial" font-size="14" lengthAdjust="spacing" textLength="116.7168" x="738.0793" y="665.6797">e recarregar a lista</text><rect fill="#FDECEC" height="52.1973" rx="6" ry="6" style="stroke:#2D6478;stroke-width:0.5;" width="160.8477" x="956.4026" y="626.4492"/><text fill="#172433" font-family="Arial" font-size="14" lengthAdjust="spacing" textLength="134.6064" x="966.4026" y="649.5811">Exibir o erro e manter</text><text fill="#172433" font-family="Arial" font-size="14" lengthAdjust="spacing" textLength="140.8477" x="966.4026" y="665.6797">o formul&#225;rio dispon&#237;vel</text><polygon fill="#FFF4D6" points="934.5337,684.6465,946.5337,696.6465,934.5337,708.6465,922.5337,696.6465,934.5337,684.6465" style="stroke:#B87716;stroke-width:0.5;"/><rect fill="#F4FAFC" height="36.0986" rx="6" ry="6" style="stroke:#2D6478;stroke-width:0.5;" width="233.2266" x="806.0515" y="808.7451"/><text fill="#172433" font-family="Arial" font-size="14" lengthAdjust="spacing" textLength="213.2266" x="816.0515" y="831.877">Atualizar somente o contexto local</text><rect fill="#F4FAFC" height="52.1973" rx="6" ry="6" style="stroke:#2D6478;stroke-width:0.5;" width="228.5576" x="808.386" y="864.8438"/><text fill="#172433" font-family="Arial" font-size="14" lengthAdjust="spacing" textLength="208.5576" x="818.386" y="887.9756">Recarregar dashboard, respostas</text><text fill="#172433" font-family="Arial" font-size="14" lengthAdjust="spacing" textLength="177.4678" x="818.386" y="904.0742">e banco da sala selecionada</text><rect fill="#F4FAFC" height="36.0986" rx="6" ry="6" style="stroke:#2D6478;stroke-width:0.5;" width="198.1992" x="839.7151" y="961.041"/><text fill="#172433" font-family="Arial" font-size="14" lengthAdjust="spacing" textLength="178.1992" x="849.7151" y="984.1729">Solicitar novamente as salas</text><polygon fill="#FFF4D6" points="875.384,1080.7544,1002.2454,1080.7544,1014.2454,1092.7544,1002.2454,1104.7544,875.384,1104.7544,863.384,1092.7544,875.384,1080.7544" style="stroke:#B87716;stroke-width:0.5;"/><text fill="#3A3428" font-family="Arial" font-size="14" lengthAdjust="spacing" textLength="126.8613" x="875.384" y="1097.8369">Consulta conclu&#237;da?</text><text fill="#000000" font-family="Arial" font-size="14" lengthAdjust="spacing" textLength="21.7725" x="841.6116" y="1089.7876">sim</text><text fill="#000000" font-family="Arial" font-size="14" lengthAdjust="spacing" textLength="23.3584" x="1014.2454" y="1089.7876">n&#227;o</text><rect fill="#F4FAFC" height="52.1973" rx="6" ry="6" style="stroke:#2D6478;stroke-width:0.5;" width="223.8887" x="721.0759" y="1114.7544"/><text fill="#172433" font-family="Arial" font-size="14" lengthAdjust="spacing" textLength="203.8887" x="731.0759" y="1137.8862">Preservar a sele&#231;&#227;o existente ou</text><text fill="#172433" font-family="Arial" font-size="14" lengthAdjust="spacing" textLength="159.5166" x="731.0759" y="1153.9849">selecionar a primeira sala</text><rect fill="#FDECEC" height="52.1973" rx="6" ry="6" style="stroke:#2D6478;stroke-width:0.5;" width="159.2891" x="964.9646" y="1114.7544"/><text fill="#172433" font-family="Arial" font-size="14" lengthAdjust="spacing" textLength="139.2891" x="974.9646" y="1137.8862">Limpar lista, sala atual</text><text fill="#172433" font-family="Arial" font-size="14" lengthAdjust="spacing" textLength="99.6064" x="974.9646" y="1153.9849">e dados vis&#237;veis</text><polygon fill="#FFF4D6" points="938.8147,1172.9517,950.8147,1184.9517,938.8147,1196.9517,926.8147,1184.9517,938.8147,1172.9517" style="stroke:#B87716;stroke-width:0.5;"/><rect fill="#F4FAFC" height="36.0986" rx="6" ry="6" style="stroke:#2D6478;stroke-width:0.5;" width="199.7373" x="807.2661" y="1273.0503"/><text fill="#172433" font-family="Arial" font-size="14" lengthAdjust="spacing" textLength="179.7373" x="817.2661" y="1296.1821">Exibir confirma&#231;&#227;o destrutiva</text><polygon fill="#FFF4D6" points="838.2661,1329.1489,976.0034,1329.1489,988.0034,1341.1489,976.0034,1353.1489,838.2661,1353.1489,826.2661,1341.1489,838.2661,1329.1489" style="stroke:#B87716;stroke-width:0.5;"/><text fill="#3A3428" font-family="Arial" font-size="14" lengthAdjust="spacing" textLength="137.7373" x="838.2661" y="1346.2314">Exclus&#227;o confirmada?</text><text fill="#000000" font-family="Arial" font-size="14" lengthAdjust="spacing" textLength="21.7725" x="804.4937" y="1338.1821">sim</text><text fill="#000000" font-family="Arial" font-size="14" lengthAdjust="spacing" textLength="23.3584" x="988.0034" y="1338.1821">n&#227;o</text><rect fill="#F4FAFC" height="36.0986" rx="6" ry="6" style="stroke:#2D6478;stroke-width:0.5;" width="138.2822" x="604.1721" y="1373.1489"/><text fill="#172433" font-family="Arial" font-size="14" lengthAdjust="spacing" textLength="118.2822" x="614.1721" y="1396.2808">Enviar o ID da sala</text><polygon fill="#FFF4D6" points="609.1067,1549.0938,737.5198,1549.0938,749.5198,1561.0938,737.5198,1573.0938,609.1067,1573.0938,597.1067,1561.0938,609.1067,1549.0938" style="stroke:#B87716;stroke-width:0.5;"/><text fill="#3A3428" font-family="Arial" font-size="14" lengthAdjust="spacing" textLength="128.4131" x="609.1067" y="1566.1763">Exclus&#227;o conclu&#237;da?</text><text fill="#000000" font-family="Arial" font-size="14" lengthAdjust="spacing" textLength="21.7725" x="575.3342" y="1558.127">sim</text><text fill="#000000" font-family="Arial" font-size="14" lengthAdjust="spacing" textLength="23.3584" x="749.5198" y="1558.127">n&#227;o</text><rect fill="#EAF7EF" height="52.1973" rx="6" ry="6" style="stroke:#2D6478;stroke-width:0.5;" width="201.3027" x="475.0432" y="1583.0938"/><text fill="#172433" font-family="Arial" font-size="14" lengthAdjust="spacing" textLength="129.9648" x="485.0432" y="1606.2256">Limpar a sala atual e</text><text fill="#172433" font-family="Arial" font-size="14" lengthAdjust="spacing" textLength="181.3027" x="485.0432" y="1622.3242">recarregar as salas restantes</text><rect fill="#FDECEC" height="52.1973" rx="6" ry="6" style="stroke:#2D6478;stroke-width:0.5;" width="149.1719" x="696.3459" y="1583.0938"/><text fill="#172433" font-family="Arial" font-size="14" lengthAdjust="spacing" textLength="129.1719" x="706.3459" y="1606.2256">Preservar o contexto</text><text fill="#172433" font-family="Arial" font-size="14" lengthAdjust="spacing" textLength="85.5928" x="706.3459" y="1622.3242">e exibir o erro</text><polygon fill="#FFF4D6" points="673.3132,1641.291,685.3132,1653.291,673.3132,1665.291,661.3132,1653.291,673.3132,1641.291" style="stroke:#B87716;stroke-width:0.5;"/><rect fill="#F4FAFC" height="36.0986" rx="6" ry="6" style="stroke:#2D6478;stroke-width:0.5;" width="203.6406" x="1039.136" y="1373.1489"/><text fill="#172433" font-family="Arial" font-size="14" lengthAdjust="spacing" textLength="183.6406" x="1049.136" y="1396.2808">Manter a sala sem altera&#231;&#245;es</text><polygon fill="#FFF4D6" points="907.1348,1675.291,919.1348,1687.291,907.1348,1699.291,895.1348,1687.291,907.1348,1675.291" style="stroke:#B87716;stroke-width:0.5;"/><line style="stroke:#9DB1BC;stroke-width:1.5;" x1="469.0432" x2="469.0432" y1="78.4629" y2="1833.9229"/><rect fill="#EDF4FA" height="1755.46" style="stroke:#EDF4FA;stroke-width:1;" width="490.0437" x="1246.7766" y="78.4629"/><rect fill="#F4FAFC" height="52.1973" rx="6" ry="6" style="stroke:#2D6478;stroke-width:0.5;" width="239.4473" x="1493.373" y="448.0547"/><text fill="#172433" font-family="Arial" font-size="14" lengthAdjust="spacing" textLength="173.5166" x="1503.373" y="471.1865">Verificar o professor e gerar</text><text fill="#172433" font-family="Arial" font-size="14" lengthAdjust="spacing" textLength="219.4473" x="1503.373" y="487.2852">um c&#243;digo &#250;nico de seis caracteres</text><rect fill="#F4FAFC" height="52.1973" rx="6" ry="6" style="stroke:#2D6478;stroke-width:0.5;" width="185.751" x="1520.2212" y="520.252"/><text fill="#172433" font-family="Arial" font-size="14" lengthAdjust="spacing" textLength="165.751" x="1530.2212" y="543.3838">Usar o nome informado ou</text><text fill="#172433" font-family="Arial" font-size="14" lengthAdjust="spacing" textLength="164.0283" x="1530.2212" y="559.4824">"Sala &lt;c&#243;digo&gt;" e persistir</text><rect fill="#F4FAFC" height="36.0986" rx="6" ry="6" style="stroke:#2D6478;stroke-width:0.5;" width="191.1924" x="1521.7815" y="1017.1396"/><text fill="#172433" font-family="Arial" font-size="14" lengthAdjust="spacing" textLength="171.1924" x="1531.7815" y="1040.2715">Listar as salas do professor</text><rect fill="#F4FAFC" height="36.0986" rx="6" ry="6" style="stroke:#2D6478;stroke-width:0.5;" width="198.1992" x="1252.7766" y="1429.2476"/><text fill="#172433" font-family="Arial" font-size="14" lengthAdjust="spacing" textLength="178.1992" x="1262.7766" y="1452.3794">Verificar a exist&#234;ncia da sala</text><path d="M1465.9138,1477.6973 L1465.9138,1499.3955 L1445.9138,1503.3955 L1465.9138,1507.3955 L1465.9138,1529.0938 A0,0 0 0 0 1465.9138,1529.0938 L1697.699,1529.0938 A0,0 0 0 0 1697.699,1529.0938 L1697.699,1487.6973 L1687.699,1477.6973 L1465.9138,1477.6973 A0,0 0 0 0 1465.9138,1477.6973" fill="#FFF9E8" style="stroke:#D2A44C;stroke-width:0.5;"/><path d="M1687.699,1477.6973 L1687.699,1487.6973 L1697.699,1487.6973 L1687.699,1477.6973" fill="#FFF9E8" style="stroke:#D2A44C;stroke-width:0.5;"/><text fill="#3A3428" font-family="Arial" font-size="12" lengthAdjust="spacing" textLength="116.0859" x="1471.9138" y="1493.9531">Efeito atual do banco:</text><ellipse cx="1477.4138" cy="1502.7949" fill="#3A3428" rx="2.5" ry="2.5"/><text fill="#3A3428" font-family="Arial" font-size="12" lengthAdjust="spacing" textLength="198.7852" x="1483.9138" y="1507.752">perguntas s&#227;o exclu&#237;das por cascata;</text><ellipse cx="1477.4138" cy="1516.5938" fill="#3A3428" rx="2.5" ry="2.5"/><text fill="#3A3428" font-family="Arial" font-size="12" lengthAdjust="spacing" textLength="182.0977" x="1483.9138" y="1521.5508">jogadores s&#227;o mantidos sem sala.</text><rect fill="#F4FAFC" height="36.0986" rx="6" ry="6" style="stroke:#2D6478;stroke-width:0.5;" width="188.0752" x="1257.8386" y="1485.3462"/><text fill="#172433" font-family="Arial" font-size="14" lengthAdjust="spacing" textLength="168.0752" x="1267.8386" y="1508.478">Excluir progressos e a sala</text><line style="stroke:#9DB1BC;stroke-width:1.5;" x1="1246.7766" x2="1246.7766" y1="78.4629" y2="1833.9229"/><line style="stroke:#9DB1BC;stroke-width:1.5;" x1="1736.8203" x2="1736.8203" y1="78.4629" y2="1833.9229"/><line style="stroke:#52677A;stroke-width:1.25;" x1="289.2129" x2="289.2129" y1="119.5615" y2="139.5615"/><polygon fill="#52677A" points="285.2129,129.5615,289.2129,139.5615,293.2129,129.5615,289.2129,133.5615" style="stroke:#52677A;stroke-width:1;"/><line style="stroke:#52677A;stroke-width:1.25;" x1="155.5996" x2="369.8367" y1="307.7588" y2="307.7588"/><line style="stroke:#52677A;stroke-width:1.25;" x1="369.8367" x2="369.8367" y1="307.7588" y2="319.7588"/><polygon fill="#52677A" points="365.8367,309.7588,369.8367,319.7588,373.8367,309.7588,369.8367,313.7588" style="stroke:#52677A;stroke-width:1;"/><line style="stroke:#52677A;stroke-width:1.25;" x1="173.5098" x2="357.9678" y1="740.6465" y2="740.6465"/><line style="stroke:#52677A;stroke-width:1.25;" x1="357.9678" x2="357.9678" y1="740.6465" y2="752.6465"/><polygon fill="#52677A" points="353.9678,742.6465,357.9678,752.6465,361.9678,742.6465,357.9678,746.6465" style="stroke:#52677A;stroke-width:1;"/><line style="stroke:#52677A;stroke-width:1.25;" x1="109.7549" x2="109.7549" y1="319.7588" y2="728.6465"/><polygon fill="#52677A" points="105.7549,718.6465,109.7549,728.6465,113.7549,718.6465,109.7549,722.6465" style="stroke:#52677A;stroke-width:1;"/><line style="stroke:#52677A;stroke-width:1.25;" x1="109.7549" x2="109.7549" y1="752.6465" y2="937.041"/><polygon fill="#52677A" points="105.7549,927.041,109.7549,937.041,113.7549,927.041,109.7549,931.041" style="stroke:#52677A;stroke-width:1;"/><line style="stroke:#52677A;stroke-width:1.25;" x1="289.2129" x2="289.2129" y1="275.7588" y2="280.7588"/><line style="stroke:#52677A;stroke-width:1.25;" x1="289.2129" x2="109.7549" y1="280.7588" y2="280.7588"/><line style="stroke:#52677A;stroke-width:1.25;" x1="109.7549" x2="109.7549" y1="280.7588" y2="295.7588"/><polygon fill="#52677A" points="105.7549,285.7588,109.7549,295.7588,113.7549,285.7588,109.7549,289.7588" style="stroke:#52677A;stroke-width:1;"/><line style="stroke:#52677A;stroke-width:1.25;" x1="109.7549" x2="109.7549" y1="961.041" y2="1201.9517"/><line style="stroke:#52677A;stroke-width:1.25;" x1="109.7549" x2="342.4377" y1="1201.9517" y2="1201.9517"/><line style="stroke:#52677A;stroke-width:1.25;" x1="342.4377" x2="342.4377" y1="1201.9517" y2="1216.9517"/><polygon fill="#52677A" points="338.4377,1206.9517,342.4377,1216.9517,346.4377,1206.9517,342.4377,1210.9517" style="stroke:#52677A;stroke-width:1;"/><text fill="#000000" font-family="Arial" font-size="14" lengthAdjust="spacing" textLength="40.4551" x="109.7549" y="1077.8369">excluir</text><line style="stroke:#52677A;stroke-width:1.25;" x1="289.2129" x2="289.2129" y1="219.6602" y2="239.6602"/><polygon fill="#52677A" points="285.2129,229.6602,289.2129,239.6602,293.2129,229.6602,289.2129,233.6602" style="stroke:#52677A;stroke-width:1;"/><line style="stroke:#52677A;stroke-width:1.25;" x1="209.8994" x2="34" y1="1765.291" y2="1765.291"/><polygon fill="#52677A" points="30,996.542,34,986.542,38,996.542,34,992.542" style="stroke:#52677A;stroke-width:1.25;"/><line style="stroke:#52677A;stroke-width:1.25;" x1="34" x2="34" y1="207.6602" y2="1765.291"/><line style="stroke:#52677A;stroke-width:1.25;" x1="34" x2="277.2129" y1="207.6602" y2="207.6602"/><polygon fill="#52677A" points="267.2129,203.6602,277.2129,207.6602,267.2129,211.6602,271.2129,207.6602" style="stroke:#52677A;stroke-width:1;"/><line style="stroke:#52677A;stroke-width:1.25;" x1="289.2129" x2="289.2129" y1="1733.291" y2="1753.291"/><polygon fill="#52677A" points="285.2129,1743.291,289.2129,1753.291,293.2129,1743.291,289.2129,1747.291" style="stroke:#52677A;stroke-width:1;"/><line style="stroke:#52677A;stroke-width:1.25;" x1="289.2129" x2="289.2129" y1="175.6602" y2="195.6602"/><polygon fill="#52677A" points="285.2129,185.6602,289.2129,195.6602,293.2129,185.6602,289.2129,189.6602" style="stroke:#52677A;stroke-width:1;"/><line style="stroke:#52677A;stroke-width:1.25;" x1="289.2129" x2="289.2129" y1="1777.291" y2="1811.9229"/><polygon fill="#52677A" points="285.2129,1801.9229,289.2129,1811.9229,293.2129,1801.9229,289.2129,1805.9229" style="stroke:#52677A;stroke-width:1;"/><line style="stroke:#52677A;stroke-width:1.25;" x1="857.9478" x2="832.241" y1="604.4492" y2="604.4492"/><line style="stroke:#52677A;stroke-width:1.25;" x1="832.241" x2="832.241" y1="604.4492" y2="626.4492"/><polygon fill="#52677A" points="828.241,616.4492,832.241,626.4492,836.241,616.4492,832.241,620.4492" style="stroke:#52677A;stroke-width:1;"/><line style="stroke:#52677A;stroke-width:1.25;" x1="1011.1196" x2="1036.8264" y1="604.4492" y2="604.4492"/><line style="stroke:#52677A;stroke-width:1.25;" x1="1036.8264" x2="1036.8264" y1="604.4492" y2="626.4492"/><polygon fill="#52677A" points="1032.8264,616.4492,1036.8264,626.4492,1040.8264,616.4492,1036.8264,620.4492" style="stroke:#52677A;stroke-width:1;"/><line style="stroke:#52677A;stroke-width:1.25;" x1="832.241" x2="832.241" y1="678.6465" y2="696.6465"/><line style="stroke:#52677A;stroke-width:1.25;" x1="832.241" x2="922.5337" y1="696.6465" y2="696.6465"/><polygon fill="#52677A" points="912.5337,692.6465,922.5337,696.6465,912.5337,700.6465,916.5337,696.6465" style="stroke:#52677A;stroke-width:1;"/><line style="stroke:#52677A;stroke-width:1.25;" x1="1036.8264" x2="1036.8264" y1="678.6465" y2="696.6465"/><line style="stroke:#52677A;stroke-width:1.25;" x1="1036.8264" x2="946.5337" y1="696.6465" y2="696.6465"/><polygon fill="#52677A" points="956.5337,692.6465,946.5337,696.6465,956.5337,700.6465,952.5337,696.6465" style="stroke:#52677A;stroke-width:1;"/><line style="stroke:#52677A;stroke-width:1.25;" x1="922.6648" x2="922.6648" y1="844.8438" y2="864.8438"/><polygon fill="#52677A" points="918.6648,854.8438,922.6648,864.8438,926.6648,854.8438,922.6648,858.8438" style="stroke:#52677A;stroke-width:1;"/><line style="stroke:#52677A;stroke-width:1.25;" x1="863.384" x2="833.0203" y1="1092.7544" y2="1092.7544"/><line style="stroke:#52677A;stroke-width:1.25;" x1="833.0203" x2="833.0203" y1="1092.7544" y2="1114.7544"/><polygon fill="#52677A" points="829.0203,1104.7544,833.0203,1114.7544,837.0203,1104.7544,833.0203,1108.7544" style="stroke:#52677A;stroke-width:1;"/><line style="stroke:#52677A;stroke-width:1.25;" x1="1014.2454" x2="1044.6091" y1="1092.7544" y2="1092.7544"/><line style="stroke:#52677A;stroke-width:1.25;" x1="1044.6091" x2="1044.6091" y1="1092.7544" y2="1114.7544"/><polygon fill="#52677A" points="1040.6091,1104.7544,1044.6091,1114.7544,1048.6091,1104.7544,1044.6091,1108.7544" style="stroke:#52677A;stroke-width:1;"/><line style="stroke:#52677A;stroke-width:1.25;" x1="833.0203" x2="833.0203" y1="1166.9517" y2="1184.9517"/><line style="stroke:#52677A;stroke-width:1.25;" x1="833.0203" x2="926.8147" y1="1184.9517" y2="1184.9517"/><polygon fill="#52677A" points="916.8147,1180.9517,926.8147,1184.9517,916.8147,1188.9517,920.8147,1184.9517" style="stroke:#52677A;stroke-width:1;"/><line style="stroke:#52677A;stroke-width:1.25;" x1="1044.6091" x2="1044.6091" y1="1166.9517" y2="1184.9517"/><line style="stroke:#52677A;stroke-width:1.25;" x1="1044.6091" x2="950.8147" y1="1184.9517" y2="1184.9517"/><polygon fill="#52677A" points="960.8147,1180.9517,950.8147,1184.9517,960.8147,1188.9517,956.8147,1184.9517" style="stroke:#52677A;stroke-width:1;"/><line style="stroke:#52677A;stroke-width:1.25;" x1="597.1067" x2="575.6946" y1="1561.0938" y2="1561.0938"/><line style="stroke:#52677A;stroke-width:1.25;" x1="575.6946" x2="575.6946" y1="1561.0938" y2="1583.0938"/><polygon fill="#52677A" points="571.6946,1573.0938,575.6946,1583.0938,579.6946,1573.0938,575.6946,1577.0938" style="stroke:#52677A;stroke-width:1;"/><line style="stroke:#52677A;stroke-width:1.25;" x1="749.5198" x2="770.9319" y1="1561.0938" y2="1561.0938"/><line style="stroke:#52677A;stroke-width:1.25;" x1="770.9319" x2="770.9319" y1="1561.0938" y2="1583.0938"/><polygon fill="#52677A" points="766.9319,1573.0938,770.9319,1583.0938,774.9319,1573.0938,770.9319,1577.0938" style="stroke:#52677A;stroke-width:1;"/><line style="stroke:#52677A;stroke-width:1.25;" x1="575.6946" x2="575.6946" y1="1635.291" y2="1653.291"/><line style="stroke:#52677A;stroke-width:1.25;" x1="575.6946" x2="661.3132" y1="1653.291" y2="1653.291"/><polygon fill="#52677A" points="651.3132,1649.291,661.3132,1653.291,651.3132,1657.291,655.3132,1653.291" style="stroke:#52677A;stroke-width:1;"/><line style="stroke:#52677A;stroke-width:1.25;" x1="770.9319" x2="770.9319" y1="1635.291" y2="1653.291"/><line style="stroke:#52677A;stroke-width:1.25;" x1="770.9319" x2="685.3132" y1="1653.291" y2="1653.291"/><polygon fill="#52677A" points="695.3132,1649.291,685.3132,1653.291,695.3132,1657.291,691.3132,1653.291" style="stroke:#52677A;stroke-width:1;"/><line style="stroke:#52677A;stroke-width:1.25;" x1="826.2661" x2="673.3132" y1="1341.1489" y2="1341.1489"/><line style="stroke:#52677A;stroke-width:1.25;" x1="673.3132" x2="673.3132" y1="1341.1489" y2="1373.1489"/><polygon fill="#52677A" points="669.3132,1363.1489,673.3132,1373.1489,677.3132,1363.1489,673.3132,1367.1489" style="stroke:#52677A;stroke-width:1;"/><line style="stroke:#52677A;stroke-width:1.25;" x1="988.0034" x2="1140.9563" y1="1341.1489" y2="1341.1489"/><line style="stroke:#52677A;stroke-width:1.25;" x1="1140.9563" x2="1140.9563" y1="1341.1489" y2="1373.1489"/><polygon fill="#52677A" points="1136.9563,1363.1489,1140.9563,1373.1489,1144.9563,1363.1489,1140.9563,1367.1489" style="stroke:#52677A;stroke-width:1;"/><line style="stroke:#52677A;stroke-width:1.25;" x1="673.3132" x2="673.3132" y1="1665.291" y2="1687.291"/><line style="stroke:#52677A;stroke-width:1.25;" x1="673.3132" x2="895.1348" y1="1687.291" y2="1687.291"/><polygon fill="#52677A" points="885.1348,1683.291,895.1348,1687.291,885.1348,1691.291,889.1348,1687.291" style="stroke:#52677A;stroke-width:1;"/><line style="stroke:#52677A;stroke-width:1.25;" x1="1140.9563" x2="1140.9563" y1="1409.2476" y2="1687.291"/><line style="stroke:#52677A;stroke-width:1.25;" x1="1140.9563" x2="919.1348" y1="1687.291" y2="1687.291"/><polygon fill="#52677A" points="929.1348,1683.291,919.1348,1687.291,929.1348,1691.291,925.1348,1687.291" style="stroke:#52677A;stroke-width:1;"/><line style="stroke:#52677A;stroke-width:1.25;" x1="907.1348" x2="907.1348" y1="1309.1489" y2="1329.1489"/><polygon fill="#52677A" points="903.1348,1319.1489,907.1348,1329.1489,911.1348,1319.1489,907.1348,1323.1489" style="stroke:#52677A;stroke-width:1;"/><line style="stroke:#52677A;stroke-width:1.25;" x1="1613.0967" x2="1613.0967" y1="500.252" y2="520.252"/><polygon fill="#52677A" points="1609.0967,510.252,1613.0967,520.252,1617.0967,510.252,1613.0967,514.252" style="stroke:#52677A;stroke-width:1;"/><line style="stroke:#52677A;stroke-width:1.25;" x1="1351.8762" x2="1351.8762" y1="1465.3462" y2="1485.3462"/><polygon fill="#52677A" points="1347.8762,1475.3462,1351.8762,1485.3462,1355.8762,1475.3462,1351.8762,1479.3462" style="stroke:#52677A;stroke-width:1;"/><line style="stroke:#52677A;stroke-width:1.25;" x1="369.8367" x2="369.8367" y1="371.9561" y2="376.9561"/><line style="stroke:#52677A;stroke-width:1.25;" x1="369.8367" x2="934.5337" y1="376.9561" y2="376.9561"/><line style="stroke:#52677A;stroke-width:1.25;" x1="934.5337" x2="934.5337" y1="376.9561" y2="391.9561"/><polygon fill="#52677A" points="930.5337,381.9561,934.5337,391.9561,938.5337,381.9561,934.5337,385.9561" style="stroke:#52677A;stroke-width:1;"/><line style="stroke:#52677A;stroke-width:1.25;" x1="934.5337" x2="934.5337" y1="428.0547" y2="433.0547"/><line style="stroke:#52677A;stroke-width:1.25;" x1="934.5337" x2="1613.0967" y1="433.0547" y2="433.0547"/><line style="stroke:#52677A;stroke-width:1.25;" x1="1613.0967" x2="1613.0967" y1="433.0547" y2="448.0547"/><polygon fill="#52677A" points="1609.0967,438.0547,1613.0967,448.0547,1617.0967,438.0547,1613.0967,442.0547" style="stroke:#52677A;stroke-width:1;"/><line style="stroke:#52677A;stroke-width:1.25;" x1="1613.0967" x2="1613.0967" y1="572.4492" y2="577.4492"/><line style="stroke:#52677A;stroke-width:1.25;" x1="1613.0967" x2="934.5337" y1="577.4492" y2="577.4492"/><line style="stroke:#52677A;stroke-width:1.25;" x1="934.5337" x2="934.5337" y1="577.4492" y2="592.4492"/><polygon fill="#52677A" points="930.5337,582.4492,934.5337,592.4492,938.5337,582.4492,934.5337,586.4492" style="stroke:#52677A;stroke-width:1;"/><line style="stroke:#52677A;stroke-width:1.25;" x1="357.9678" x2="357.9678" y1="788.7451" y2="793.7451"/><line style="stroke:#52677A;stroke-width:1.25;" x1="357.9678" x2="922.6648" y1="793.7451" y2="793.7451"/><line style="stroke:#52677A;stroke-width:1.25;" x1="922.6648" x2="922.6648" y1="793.7451" y2="808.7451"/><polygon fill="#52677A" points="918.6648,798.7451,922.6648,808.7451,926.6648,798.7451,922.6648,802.7451" style="stroke:#52677A;stroke-width:1;"/><line style="stroke:#52677A;stroke-width:1.25;" x1="938.8147" x2="938.8147" y1="997.1396" y2="1002.1396"/><line style="stroke:#52677A;stroke-width:1.25;" x1="938.8147" x2="1617.3777" y1="1002.1396" y2="1002.1396"/><line style="stroke:#52677A;stroke-width:1.25;" x1="1617.3777" x2="1617.3777" y1="1002.1396" y2="1017.1396"/><polygon fill="#52677A" points="1613.3777,1007.1396,1617.3777,1017.1396,1621.3777,1007.1396,1617.3777,1011.1396" style="stroke:#52677A;stroke-width:1;"/><line style="stroke:#52677A;stroke-width:1.25;" x1="1617.3777" x2="1617.3777" y1="1053.2383" y2="1063.2544"/><line style="stroke:#52677A;stroke-width:1.25;" x1="1617.3777" x2="938.8147" y1="1063.2544" y2="1063.2544"/><line style="stroke:#52677A;stroke-width:1.25;" x1="938.8147" x2="938.8147" y1="1063.2544" y2="1080.7544"/><polygon fill="#52677A" points="934.8147,1070.7544,938.8147,1080.7544,942.8147,1070.7544,938.8147,1074.7544" style="stroke:#52677A;stroke-width:1;"/><line style="stroke:#52677A;stroke-width:1.25;" x1="342.4377" x2="342.4377" y1="1253.0503" y2="1258.0503"/><line style="stroke:#52677A;stroke-width:1.25;" x1="342.4377" x2="907.1348" y1="1258.0503" y2="1258.0503"/><line style="stroke:#52677A;stroke-width:1.25;" x1="907.1348" x2="907.1348" y1="1258.0503" y2="1273.0503"/><polygon fill="#52677A" points="903.1348,1263.0503,907.1348,1273.0503,911.1348,1263.0503,907.1348,1267.0503" style="stroke:#52677A;stroke-width:1;"/><line style="stroke:#52677A;stroke-width:1.25;" x1="673.3132" x2="673.3132" y1="1409.2476" y2="1414.2476"/><line style="stroke:#52677A;stroke-width:1.25;" x1="673.3132" x2="1351.8762" y1="1414.2476" y2="1414.2476"/><line style="stroke:#52677A;stroke-width:1.25;" x1="1351.8762" x2="1351.8762" y1="1414.2476" y2="1429.2476"/><polygon fill="#52677A" points="1347.8762,1419.2476,1351.8762,1429.2476,1355.8762,1419.2476,1351.8762,1423.2476" style="stroke:#52677A;stroke-width:1;"/><line style="stroke:#52677A;stroke-width:1.25;" x1="1351.8762" x2="1351.8762" y1="1521.4448" y2="1534.0938"/><line style="stroke:#52677A;stroke-width:1.25;" x1="1351.8762" x2="673.3132" y1="1534.0938" y2="1534.0938"/><line style="stroke:#52677A;stroke-width:1.25;" x1="673.3132" x2="673.3132" y1="1534.0938" y2="1549.0938"/><polygon fill="#52677A" points="669.3132,1539.0938,673.3132,1549.0938,677.3132,1539.0938,673.3132,1543.0938" style="stroke:#52677A;stroke-width:1;"/><text fill="#244C66" font-family="Arial" font-size="14" lengthAdjust="spacing" textLength="59.9102" x="212.0665" y="91.5947">Professor</text><text fill="#244C66" font-family="Arial" font-size="14" lengthAdjust="spacing" textLength="85.6064" x="815.1067" y="91.5947">Cliente Godot</text><text fill="#244C66" font-family="Arial" font-size="14" lengthAdjust="spacing" textLength="147.0342" x="1418.2814" y="91.5947">API NestJS / TypeORM</text><g class="caption" data-source-line="77"><text fill="#52677A" font-family="Arial" font-size="11" lengthAdjust="spacing" textLength="354.6426" x="699.0613" y="1845.2407">Fluxo AS-IS revisado em 15/09/2026 - opera&#231;&#245;es alternativas separadas</text></g><!--SRC=[XLPDZzn44BtxLnJ9POAosR1A0dWGQ3HhHnibiCe0fv5GhrqpKyZkjhhRam7Ddq4Sa91oGboupX-Zglsvu4mkUrYxNxttwlNpV48wA-eSmMEfBfIdFUKgH_U4whA88a- -G7Xbh5QvWjp0qkWTPbIYzcQjRwtPe7F6mjNb2xY0bsXHPwJ2Os1KfmhbeanLdeo6jAWF1XQhYviLMDoJKuo89Nps_FBfbvTNJwy4mrHerUcFqz_eG1KUUJIpKWuSLieo3HT5nuTfcZwxVd7i2HmZvvNrKRouisHx8XPMp60UHHOhL3u2Y1ENcMA75kfIzSD-D_mE06rWjhHoJ8X_ymZy3ZNC79MF-2aVlj4ROqibXq6R4XaWOsMgM6iMQmhAY6c0WenHMbmvU7oOBDBdwHV7PK7i3S9Banj_R40JlPUHLQVb9ye10tn_-3fzbYwEYziR-1QTVxM2I_Z-bmg_U_kcnVWHBMqeOnWp037AblNPjMQwsUcldBO6Jlzeofhb83dW8ofZbz4rm-8VN009wgYHoriozLe_42_XgnRewmSCp_OvSfviotH2NkTfS0CoepSaa1Fk0eXBdoTfV8qRqYG-QhDNOHbyiZIWVDruRP69Mzm6imkce1e6M3Y4cUPHFMPwdIoJPPmSw8v46LhBVw1KJ9IjCI0Qw-BqcoMsXLnbzEdz7eiMKEUqaMm8icXPOO5XvnyAoJYKpNx7YGjQydkS9qEn4ANqgqmnPNWQpFDuu9jLc4or_EAtWnDyDtPtHjdyCVl3EdY24xFkb9QDjyDT9o1Nyx6mOMBWDY5iYkUg3xsigc4gbrKkVYllJ6nVooJR7v26wTFxaKWPxUh2IowamKxlfnCLtx8JQFSX9wAyYI4UU73ZAWVR3IjLF9_RZMnZriT2zPhAgZFiSMDl7r7kKUE0MqxIH6uYJZ330tCd-u7Wh4Q54jvqmhtROnXq9a5juBiRrmZdQlUsbaATzrOcFVJvszaLbO6Rwux5l7rsPidtsaarrf_-b7R-BqYSD7P81hPMd71yKU-_emtBjBJT-VOV0Ca6oRVT80aASO_xnvzAIsrhxILbpVBRm3Yek2GpvJBb-m5ou6UpvUKnW-Q0L0N9CXr_h8JCa_PTtcOWr9amiOO9Yy_4TQZ0DbdZNGEkzRZtkal3FBsKcUia_3-lGsA7-p3qYQGLn_Ku7_HnMgSXupUXGA5lbRBvNBVVxd7SHx4VPxpv9iEx7V5lZDdmoJQrRwyVMyIVg62G-DmHSDvKqRy0]--></g></svg>