<svg xmlns="http://www.w3.org/2000/svg" xmlns:xlink="http://www.w3.org/1999/xlink" contentStyleType="text/css" data-diagram-type="ACTIVITY" height="1814px" preserveAspectRatio="none" style="width:2144px;height:1814px;background:#FBFCFE;" version="1.1" viewBox="0 0 2144 1814" width="2144px" zoomAndPan="magnify"><title>Jornada do Conhecimento</title><defs/><g><rect fill="#FBFCFE" height="1814" style="stroke:none;stroke-width:1;" width="2144" x="0" y="0"/><g class="title" data-source-line="442"><text fill="#17324D" font-family="Arial" font-size="20" font-weight="bold" lengthAdjust="spacing" textLength="252.2461" x="944.4076" y="38.7598">Jornada do Conhecimento</text><text fill="#17324D" font-family="Arial" font-size="20" font-weight="bold" lengthAdjust="spacing" textLength="414.5996" x="863.2308" y="61.7578">Aluno 1/3 - Entrada e prepara&#231;&#227;o da sess&#227;o</text></g><rect fill="#E9F3F6" height="16.0986" style="stroke:#E9F3F6;stroke-width:1;" width="2111.0613" x="15" y="78.4629"/><rect fill="#FFF4D6" height="1708.1963" style="stroke:#FFF4D6;stroke-width:1;" width="362.3833" x="15" y="78.4629"/><ellipse cx="156.4443" cy="109.5615" fill="#222222" rx="10" ry="10" style="stroke:#222222;stroke-width:1;"/><rect fill="#F4FAFC" height="36.0986" rx="6" ry="6" style="stroke:#2D6478;stroke-width:0.5;" width="171.7578" x="70.5654" y="139.5615"/><text fill="#172433" font-family="Arial" font-size="14" lengthAdjust="spacing" textLength="151.7578" x="80.5654" y="162.6934">Selecionar o perfil Aluno</text><rect fill="#F4FAFC" height="36.0986" rx="6" ry="6" style="stroke:#2D6478;stroke-width:0.5;" width="216.8887" x="48" y="239.6602"/><text fill="#172433" font-family="Arial" font-size="14" lengthAdjust="spacing" textLength="196.8887" x="58" y="262.792">Informar nome e c&#243;digo da sala</text><rect fill="#F4FAFC" height="52.1973" rx="6" ry="6" style="stroke:#2D6478;stroke-width:0.5;" width="215.3096" x="48.7896" y="295.7588"/><text fill="#172433" font-family="Arial" font-size="14" lengthAdjust="spacing" textLength="178.9854" x="58.7896" y="318.8906">Escolher um personagem ou</text><text fill="#172433" font-family="Arial" font-size="14" lengthAdjust="spacing" textLength="195.3096" x="58.7896" y="334.9893">manter o primeiro como padr&#227;o</text><rect fill="#F4FAFC" height="36.0986" rx="6" ry="6" style="stroke:#2D6478;stroke-width:0.5;" width="213.7441" x="159.6392" y="1559.8301"/><text fill="#172433" font-family="Arial" font-size="14" lengthAdjust="spacing" textLength="193.7441" x="169.6392" y="1582.9619">Corrigir ou reinformar os dados</text><polygon fill="#FFF4D6" points="156.4443,195.6602,168.4443,207.6602,156.4443,219.6602,144.4443,207.6602,156.4443,195.6602" style="stroke:#B87716;stroke-width:0.5;"/><polygon fill="#FFF4D6" points="84.4517,1649.9287,228.437,1649.9287,240.437,1661.9287,228.437,1673.9287,84.4517,1673.9287,72.4517,1661.9287,84.4517,1649.9287" style="stroke:#B87716;stroke-width:0.5;"/><text fill="#000000" font-family="Arial" font-size="14" lengthAdjust="spacing" textLength="21.7725" x="160.4443" y="1687.0605">sim</text><text fill="#3A3428" font-family="Arial" font-size="14" lengthAdjust="spacing" textLength="143.9854" x="84.4517" y="1667.0112">Prepara&#231;&#227;o conclu&#237;da?</text><text fill="#000000" font-family="Arial" font-size="14" lengthAdjust="spacing" textLength="23.3584" x="240.437" y="1658.9619">n&#227;o</text><line style="stroke:#9DB1BC;stroke-width:1.5;" x1="15" x2="15" y1="78.4629" y2="1786.6592"/><rect fill="#EAF5F8" height="1708.1963" style="stroke:#EAF5F8;stroke-width:1;" width="1125.7556" x="377.3833" y="78.4629"/><rect fill="#F4FAFC" height="52.1973" rx="6" ry="6" style="stroke:#2D6478;stroke-width:0.5;" width="189.6338" x="1124.4837" y="367.9561"/><text fill="#172433" font-family="Arial" font-size="14" lengthAdjust="spacing" textLength="169.6338" x="1134.4837" y="391.0879">Remover espa&#231;os e validar</text><text fill="#172433" font-family="Arial" font-size="14" lengthAdjust="spacing" textLength="168.8818" x="1134.4837" y="407.1865">nome e c&#243;digo obrigat&#243;rios</text><polygon fill="#FFF4D6" points="1145.7664,440.1533,1292.8348,440.1533,1304.8348,452.1533,1292.8348,464.1533,1145.7664,464.1533,1133.7664,452.1533,1145.7664,440.1533" style="stroke:#B87716;stroke-width:0.5;"/><text fill="#3A3428" font-family="Arial" font-size="14" lengthAdjust="spacing" textLength="147.0684" x="1145.7664" y="457.2358">Campos locais v&#225;lidos?</text><text fill="#000000" font-family="Arial" font-size="14" lengthAdjust="spacing" textLength="21.7725" x="1111.994" y="449.1865">sim</text><text fill="#000000" font-family="Arial" font-size="14" lengthAdjust="spacing" textLength="23.3584" x="1304.8348" y="449.1865">n&#227;o</text><rect fill="#F4FAFC" height="52.1973" rx="6" ry="6" style="stroke:#2D6478;stroke-width:0.5;" width="207.5508" x="905.9901" y="484.1533"/><text fill="#172433" font-family="Arial" font-size="14" lengthAdjust="spacing" textLength="156.4063" x="915.9901" y="507.2852">Iniciar o GameState local</text><text fill="#172433" font-family="Arial" font-size="14" lengthAdjust="spacing" textLength="187.5508" x="915.9901" y="523.3838">e abrir a tela de carregamento</text><rect fill="#F4FAFC" height="36.0986" rx="6" ry="6" style="stroke:#2D6478;stroke-width:0.5;" width="186.5439" x="916.4935" y="556.3506"/><text fill="#172433" font-family="Arial" font-size="14" lengthAdjust="spacing" textLength="166.5439" x="926.4935" y="579.4824">Solicitar a sala pelo c&#243;digo</text><polygon fill="#FFF4D6" points="954.89,684.6465,1064.641,684.6465,1076.641,696.6465,1064.641,708.6465,954.89,708.6465,942.89,696.6465,954.89,684.6465" style="stroke:#B87716;stroke-width:0.5;"/><text fill="#3A3428" font-family="Arial" font-size="14" lengthAdjust="spacing" textLength="109.751" x="954.89" y="701.729">Sala encontrada?</text><text fill="#000000" font-family="Arial" font-size="14" lengthAdjust="spacing" textLength="21.7725" x="921.1176" y="693.6797">sim</text><text fill="#000000" font-family="Arial" font-size="14" lengthAdjust="spacing" textLength="23.3584" x="1076.641" y="693.6797">n&#227;o</text><rect fill="#F4FAFC" height="52.1973" rx="6" ry="6" style="stroke:#2D6478;stroke-width:0.5;" width="200.5303" x="693.3433" y="728.6465"/><text fill="#172433" font-family="Arial" font-size="14" lengthAdjust="spacing" textLength="180.5303" x="703.3433" y="751.7783">Solicitar cria&#231;&#227;o/recupera&#231;&#227;o</text><text fill="#172433" font-family="Arial" font-size="14" lengthAdjust="spacing" textLength="115.1992" x="703.3433" y="767.877">do jogador na sala</text><polygon fill="#FFF4D6" points="708.395,993.1396,878.8218,993.1396,890.8218,1005.1396,878.8218,1017.1396,708.395,1017.1396,696.395,1005.1396,708.395,993.1396" style="stroke:#B87716;stroke-width:0.5;"/><text fill="#3A3428" font-family="Arial" font-size="14" lengthAdjust="spacing" textLength="170.4268" x="708.395" y="1010.2222">Jogador retornado com ID?</text><text fill="#000000" font-family="Arial" font-size="14" lengthAdjust="spacing" textLength="21.7725" x="674.6226" y="1002.1729">sim</text><text fill="#000000" font-family="Arial" font-size="14" lengthAdjust="spacing" textLength="23.3584" x="890.8218" y="1002.1729">n&#227;o</text><rect fill="#F4FAFC" height="36.0986" rx="6" ry="6" style="stroke:#2D6478;stroke-width:0.5;" width="184.9854" x="524.188" y="1037.1396"/><text fill="#172433" font-family="Arial" font-size="14" lengthAdjust="spacing" textLength="164.9854" x="534.188" y="1060.2715">Solicitar perguntas da sala</text><rect fill="#F4FAFC" height="52.1973" rx="6" ry="6" style="stroke:#2D6478;stroke-width:0.5;" width="246.4336" x="493.4639" y="1149.3369"/><text fill="#172433" font-family="Arial" font-size="14" lengthAdjust="spacing" textLength="226.4336" x="503.4639" y="1172.4688">Normalizar as perguntas e descartar</text><text fill="#172433" font-family="Arial" font-size="14" lengthAdjust="spacing" textLength="215.5781" x="503.4639" y="1188.5674">alternativas/gabaritos n&#227;o jog&#225;veis</text><polygon fill="#FFF4D6" points="536.126,1221.5342,697.2354,1221.5342,709.2354,1233.5342,697.2354,1245.5342,536.126,1245.5342,524.126,1233.5342,536.126,1221.5342" style="stroke:#B87716;stroke-width:0.5;"/><text fill="#3A3428" font-family="Arial" font-size="14" lengthAdjust="spacing" textLength="161.1094" x="536.126" y="1238.6167">Restou alguma pergunta?</text><text fill="#000000" font-family="Arial" font-size="14" lengthAdjust="spacing" textLength="21.7725" x="502.3535" y="1230.5674">sim</text><text fill="#000000" font-family="Arial" font-size="14" lengthAdjust="spacing" textLength="23.3584" x="709.2354" y="1230.5674">n&#227;o</text><rect fill="#EAF7EF" height="36.0986" rx="6" ry="6" style="stroke:#2D6478;stroke-width:0.5;" width="229.3232" x="383.3833" y="1255.5342"/><text fill="#172433" font-family="Arial" font-size="14" lengthAdjust="spacing" textLength="209.3232" x="393.3833" y="1278.666">Marcar a sess&#227;o como preparada</text><rect fill="#FDECEC" height="36.0986" rx="6" ry="6" style="stroke:#2D6478;stroke-width:0.5;" width="205.2197" x="632.7065" y="1255.5342"/><text fill="#172433" font-family="Arial" font-size="14" lengthAdjust="spacing" textLength="185.2197" x="642.7065" y="1278.666">Registrar falha de prepara&#231;&#227;o</text><polygon fill="#FFF4D6" points="616.6807,1297.6328,628.6807,1309.6328,616.6807,1321.6328,604.6807,1309.6328,616.6807,1297.6328" style="stroke:#B87716;stroke-width:0.5;"/><rect fill="#FDECEC" height="36.0986" rx="6" ry="6" style="stroke:#2D6478;stroke-width:0.5;" width="205.2197" x="867.9263" y="1037.1396"/><text fill="#172433" font-family="Arial" font-size="14" lengthAdjust="spacing" textLength="185.2197" x="877.9263" y="1060.2715">Registrar falha de prepara&#231;&#227;o</text><polygon fill="#FFF4D6" points="793.6084,1331.6328,805.6084,1343.6328,793.6084,1355.6328,781.6084,1343.6328,793.6084,1331.6328" style="stroke:#B87716;stroke-width:0.5;"/><rect fill="#FDECEC" height="36.0986" rx="6" ry="6" style="stroke:#2D6478;stroke-width:0.5;" width="205.2197" x="1123.3127" y="728.6465"/><text fill="#172433" font-family="Arial" font-size="14" lengthAdjust="spacing" textLength="185.2197" x="1133.3127" y="751.7783">Registrar falha de prepara&#231;&#227;o</text><polygon fill="#FFF4D6" points="1009.7655,1365.6328,1021.7655,1377.6328,1009.7655,1389.6328,997.7655,1377.6328,1009.7655,1365.6328" style="stroke:#B87716;stroke-width:0.5;"/><rect fill="#FDECEC" height="52.1973" rx="6" ry="6" style="stroke:#2D6478;stroke-width:0.5;" width="140.6064" x="1358.5325" y="484.1533"/><text fill="#172433" font-family="Arial" font-size="14" lengthAdjust="spacing" textLength="120.6064" x="1368.5325" y="507.2852">Exibir alerta e focar</text><text fill="#172433" font-family="Arial" font-size="14" lengthAdjust="spacing" textLength="105.0615" x="1368.5325" y="523.3838">o campo inv&#225;lido</text><polygon fill="#FFF4D6" points="1219.3006,1399.6328,1231.3006,1411.6328,1219.3006,1423.6328,1207.3006,1411.6328,1219.3006,1399.6328" style="stroke:#B87716;stroke-width:0.5;"/><polygon fill="#FFF4D6" points="1147.3079,1443.6328,1291.2933,1443.6328,1303.2933,1455.6328,1291.2933,1467.6328,1147.3079,1467.6328,1135.3079,1455.6328,1147.3079,1443.6328" style="stroke:#B87716;stroke-width:0.5;"/><text fill="#3A3428" font-family="Arial" font-size="14" lengthAdjust="spacing" textLength="143.9854" x="1147.3079" y="1460.7153">Prepara&#231;&#227;o conclu&#237;da?</text><text fill="#000000" font-family="Arial" font-size="14" lengthAdjust="spacing" textLength="21.7725" x="1113.5355" y="1452.666">sim</text><text fill="#000000" font-family="Arial" font-size="14" lengthAdjust="spacing" textLength="23.3584" x="1303.2933" y="1452.666">n&#227;o</text><rect fill="#F4FAFC" height="36.0986" rx="6" ry="6" style="stroke:#2D6478;stroke-width:0.5;" width="186.5234" x="1015.972" y="1487.6328"/><text fill="#172433" font-family="Arial" font-size="14" lengthAdjust="spacing" textLength="166.5234" x="1025.972" y="1510.7646">Completar o carregamento</text><rect fill="#F4FAFC" height="52.1973" rx="6" ry="6" style="stroke:#2D6478;stroke-width:0.5;" width="150.7305" x="1254.0023" y="1487.6328"/><text fill="#172433" font-family="Arial" font-size="14" lengthAdjust="spacing" textLength="130.7305" x="1264.0023" y="1510.7646">Exibir a falha e voltar</text><text fill="#172433" font-family="Arial" font-size="14" lengthAdjust="spacing" textLength="116.7646" x="1264.0023" y="1526.8633">&#224; entrada do aluno</text><polygon fill="#FFF4D6" points="1219.3006,1605.9287,1231.3006,1617.9287,1219.3006,1629.9287,1207.3006,1617.9287,1219.3006,1605.9287" style="stroke:#B87716;stroke-width:0.5;"/><rect fill="#EAF7EF" height="36.0986" rx="6" ry="6" style="stroke:#2D6478;stroke-width:0.5;" width="183.4268" x="1127.5872" y="1708.5605"/><text fill="#172433" font-family="Arial" font-size="14" lengthAdjust="spacing" textLength="163.4268" x="1137.5872" y="1731.6924">Abrir o tabuleiro na casa 1</text><ellipse cx="1219.3006" cy="1775.6592" fill="none" rx="11" ry="11" style="stroke:#222222;stroke-width:1;"/><ellipse cx="1219.3006" cy="1775.6592" fill="#222222" rx="6" ry="6" style="stroke:#222222;stroke-width:1;"/><line style="stroke:#9DB1BC;stroke-width:1.5;" x1="377.3833" x2="377.3833" y1="78.4629" y2="1786.6592"/><rect fill="#EDF4FA" height="1708.1963" style="stroke:#EDF4FA;stroke-width:1;" width="621.9775" x="1503.1389" y="78.4629"/><rect fill="#F4FAFC" height="52.1973" rx="6" ry="6" style="stroke:#2D6478;stroke-width:0.5;" width="144.4961" x="1965.3212" y="612.4492"/><text fill="#172433" font-family="Arial" font-size="14" lengthAdjust="spacing" textLength="124.4961" x="1975.3212" y="635.5811">Normalizar o c&#243;digo</text><text fill="#172433" font-family="Arial" font-size="14" lengthAdjust="spacing" textLength="94.9443" x="1975.3212" y="651.6797">e buscar a sala</text><rect fill="#F4FAFC" height="36.0986" rx="6" ry="6" style="stroke:#2D6478;stroke-width:0.5;" width="191.958" x="1735.4331" y="800.8438"/><text fill="#172433" font-family="Arial" font-size="14" lengthAdjust="spacing" textLength="171.958" x="1745.4331" y="823.9756">Normalizar o nome por sala</text><polygon fill="#FFF4D6" points="1774.5986,856.9424,1888.2256,856.9424,1900.2256,868.9424,1888.2256,880.9424,1774.5986,880.9424,1762.5986,868.9424,1774.5986,856.9424" style="stroke:#B87716;stroke-width:0.5;"/><text fill="#3A3428" font-family="Arial" font-size="14" lengthAdjust="spacing" textLength="113.627" x="1774.5986" y="874.0249">Jogador j&#225; existe?</text><text fill="#000000" font-family="Arial" font-size="14" lengthAdjust="spacing" textLength="21.7725" x="1740.8262" y="865.9756">sim</text><text fill="#000000" font-family="Arial" font-size="14" lengthAdjust="spacing" textLength="23.3584" x="1900.2256" y="865.9756">n&#227;o</text><path d="M1739.8,905.1416 L1739.8,913.041 L1719.8,917.041 L1739.8,921.041 L1739.8,928.9404 A0,0 0 0 0 1739.8,928.9404 L1945.593,928.9404 A0,0 0 0 0 1945.593,928.9404 L1945.593,915.1416 L1935.593,905.1416 L1739.8,905.1416 A0,0 0 0 0 1739.8,905.1416" fill="#FFF9E8" style="stroke:#D2A44C;stroke-width:0.5;"/><path d="M1935.593,905.1416 L1935.593,915.1416 L1945.593,915.1416 L1935.593,905.1416" fill="#FFF9E8" style="stroke:#D2A44C;stroke-width:0.5;"/><text fill="#3A3428" font-family="Arial" font-size="12" lengthAdjust="spacing" textLength="184.793" x="1745.8" y="921.3975">A pontua&#231;&#227;o remota n&#227;o &#233; zerada.</text><rect fill="#F4FAFC" height="52.1973" rx="6" ry="6" style="stroke:#2D6478;stroke-width:0.5;" width="210.6611" x="1509.1389" y="890.9424"/><text fill="#172433" font-family="Arial" font-size="14" lengthAdjust="spacing" textLength="185.1992" x="1519.1389" y="914.0742">Reutilizar o jogador e reiniciar</text><text fill="#172433" font-family="Arial" font-size="14" lengthAdjust="spacing" textLength="190.6611" x="1519.1389" y="930.1729">casa, fase, status e finaliza&#231;&#227;o</text><rect fill="#F4FAFC" height="52.1973" rx="6" ry="6" style="stroke:#2D6478;stroke-width:0.5;" width="165.5234" x="1955.593" y="890.9424"/><text fill="#172433" font-family="Arial" font-size="14" lengthAdjust="spacing" textLength="145.5234" x="1965.593" y="914.0742">Criar jogador na casa 1</text><text fill="#172433" font-family="Arial" font-size="14" lengthAdjust="spacing" textLength="126.8545" x="1965.593" y="930.1729">com pontua&#231;&#227;o zero</text><polygon fill="#FFF4D6" points="1831.4121,949.1396,1843.4121,961.1396,1831.4121,973.1396,1819.4121,961.1396,1831.4121,949.1396" style="stroke:#B87716;stroke-width:0.5;"/><rect fill="#F4FAFC" height="36.0986" rx="6" ry="6" style="stroke:#2D6478;stroke-width:0.5;" width="238.6748" x="1535.147" y="1093.2383"/><text fill="#172433" font-family="Arial" font-size="14" lengthAdjust="spacing" textLength="218.6748" x="1545.147" y="1116.3701">Retornar somente perguntas ativas</text><line style="stroke:#9DB1BC;stroke-width:1.5;" x1="1503.1389" x2="1503.1389" y1="78.4629" y2="1786.6592"/><line style="stroke:#9DB1BC;stroke-width:1.5;" x1="2125.1165" x2="2125.1165" y1="78.4629" y2="1786.6592"/><line style="stroke:#52677A;stroke-width:1.25;" x1="156.4443" x2="156.4443" y1="119.5615" y2="139.5615"/><polygon fill="#52677A" points="152.4443,129.5615,156.4443,139.5615,160.4443,129.5615,156.4443,133.5615" style="stroke:#52677A;stroke-width:1;"/><line style="stroke:#52677A;stroke-width:1.25;" x1="156.4443" x2="156.4443" y1="275.7588" y2="295.7588"/><polygon fill="#52677A" points="152.4443,285.7588,156.4443,295.7588,160.4443,285.7588,156.4443,289.7588" style="stroke:#52677A;stroke-width:1;"/><line style="stroke:#52677A;stroke-width:1.25;" x1="156.4443" x2="156.4443" y1="219.6602" y2="239.6602"/><polygon fill="#52677A" points="152.4443,229.6602,156.4443,239.6602,160.4443,229.6602,156.4443,233.6602" style="stroke:#52677A;stroke-width:1;"/><line style="stroke:#52677A;stroke-width:1.25;" x1="72.4517" x2="34" y1="1661.9287" y2="1661.9287"/><polygon fill="#52677A" points="30,929.7944,34,919.7944,38,929.7944,34,925.7944" style="stroke:#52677A;stroke-width:1.25;"/><line style="stroke:#52677A;stroke-width:1.25;" x1="34" x2="34" y1="207.6602" y2="1661.9287"/><line style="stroke:#52677A;stroke-width:1.25;" x1="34" x2="144.4443" y1="207.6602" y2="207.6602"/><polygon fill="#52677A" points="134.4443,203.6602,144.4443,207.6602,134.4443,211.6602,138.4443,207.6602" style="stroke:#52677A;stroke-width:1;"/><line style="stroke:#52677A;stroke-width:1.25;" x1="156.4443" x2="156.4443" y1="175.6602" y2="195.6602"/><polygon fill="#52677A" points="152.4443,185.6602,156.4443,195.6602,160.4443,185.6602,156.4443,189.6602" style="stroke:#52677A;stroke-width:1;"/><line style="stroke:#52677A;stroke-width:1.25;" x1="1009.7655" x2="1009.7655" y1="536.3506" y2="556.3506"/><polygon fill="#52677A" points="1005.7655,546.3506,1009.7655,556.3506,1013.7655,546.3506,1009.7655,550.3506" style="stroke:#52677A;stroke-width:1;"/><line style="stroke:#52677A;stroke-width:1.25;" x1="524.126" x2="498.0449" y1="1233.5342" y2="1233.5342"/><line style="stroke:#52677A;stroke-width:1.25;" x1="498.0449" x2="498.0449" y1="1233.5342" y2="1255.5342"/><polygon fill="#52677A" points="494.0449,1245.5342,498.0449,1255.5342,502.0449,1245.5342,498.0449,1249.5342" style="stroke:#52677A;stroke-width:1;"/><line style="stroke:#52677A;stroke-width:1.25;" x1="709.2354" x2="735.3164" y1="1233.5342" y2="1233.5342"/><line style="stroke:#52677A;stroke-width:1.25;" x1="735.3164" x2="735.3164" y1="1233.5342" y2="1255.5342"/><polygon fill="#52677A" points="731.3164,1245.5342,735.3164,1255.5342,739.3164,1245.5342,735.3164,1249.5342" style="stroke:#52677A;stroke-width:1;"/><line style="stroke:#52677A;stroke-width:1.25;" x1="498.0449" x2="498.0449" y1="1291.6328" y2="1309.6328"/><line style="stroke:#52677A;stroke-width:1.25;" x1="498.0449" x2="604.6807" y1="1309.6328" y2="1309.6328"/><polygon fill="#52677A" points="594.6807,1305.6328,604.6807,1309.6328,594.6807,1313.6328,598.6807,1309.6328" style="stroke:#52677A;stroke-width:1;"/><line style="stroke:#52677A;stroke-width:1.25;" x1="735.3164" x2="735.3164" y1="1291.6328" y2="1309.6328"/><line style="stroke:#52677A;stroke-width:1.25;" x1="735.3164" x2="628.6807" y1="1309.6328" y2="1309.6328"/><polygon fill="#52677A" points="638.6807,1305.6328,628.6807,1309.6328,638.6807,1313.6328,634.6807,1309.6328" style="stroke:#52677A;stroke-width:1;"/><line style="stroke:#52677A;stroke-width:1.25;" x1="616.6807" x2="616.6807" y1="1201.5342" y2="1221.5342"/><polygon fill="#52677A" points="612.6807,1211.5342,616.6807,1221.5342,620.6807,1211.5342,616.6807,1215.5342" style="stroke:#52677A;stroke-width:1;"/><line style="stroke:#52677A;stroke-width:1.25;" x1="696.395" x2="616.6807" y1="1005.1396" y2="1005.1396"/><line style="stroke:#52677A;stroke-width:1.25;" x1="616.6807" x2="616.6807" y1="1005.1396" y2="1037.1396"/><polygon fill="#52677A" points="612.6807,1027.1396,616.6807,1037.1396,620.6807,1027.1396,616.6807,1031.1396" style="stroke:#52677A;stroke-width:1;"/><line style="stroke:#52677A;stroke-width:1.25;" x1="890.8218" x2="970.5361" y1="1005.1396" y2="1005.1396"/><line style="stroke:#52677A;stroke-width:1.25;" x1="970.5361" x2="970.5361" y1="1005.1396" y2="1037.1396"/><polygon fill="#52677A" points="966.5361,1027.1396,970.5361,1037.1396,974.5361,1027.1396,970.5361,1031.1396" style="stroke:#52677A;stroke-width:1;"/><line style="stroke:#52677A;stroke-width:1.25;" x1="616.6807" x2="616.6807" y1="1321.6328" y2="1343.6328"/><line style="stroke:#52677A;stroke-width:1.25;" x1="616.6807" x2="781.6084" y1="1343.6328" y2="1343.6328"/><polygon fill="#52677A" points="771.6084,1339.6328,781.6084,1343.6328,771.6084,1347.6328,775.6084,1343.6328" style="stroke:#52677A;stroke-width:1;"/><line style="stroke:#52677A;stroke-width:1.25;" x1="970.5361" x2="970.5361" y1="1073.2383" y2="1343.6328"/><line style="stroke:#52677A;stroke-width:1.25;" x1="970.5361" x2="805.6084" y1="1343.6328" y2="1343.6328"/><polygon fill="#52677A" points="815.6084,1339.6328,805.6084,1343.6328,815.6084,1347.6328,811.6084,1343.6328" style="stroke:#52677A;stroke-width:1;"/><line style="stroke:#52677A;stroke-width:1.25;" x1="942.89" x2="793.6084" y1="696.6465" y2="696.6465"/><line style="stroke:#52677A;stroke-width:1.25;" x1="793.6084" x2="793.6084" y1="696.6465" y2="728.6465"/><polygon fill="#52677A" points="789.6084,718.6465,793.6084,728.6465,797.6084,718.6465,793.6084,722.6465" style="stroke:#52677A;stroke-width:1;"/><line style="stroke:#52677A;stroke-width:1.25;" x1="1076.641" x2="1225.9226" y1="696.6465" y2="696.6465"/><line style="stroke:#52677A;stroke-width:1.25;" x1="1225.9226" x2="1225.9226" y1="696.6465" y2="728.6465"/><polygon fill="#52677A" points="1221.9226,718.6465,1225.9226,728.6465,1229.9226,718.6465,1225.9226,722.6465" style="stroke:#52677A;stroke-width:1;"/><line style="stroke:#52677A;stroke-width:1.25;" x1="793.6084" x2="793.6084" y1="1355.6328" y2="1377.6328"/><line style="stroke:#52677A;stroke-width:1.25;" x1="793.6084" x2="997.7655" y1="1377.6328" y2="1377.6328"/><polygon fill="#52677A" points="987.7655,1373.6328,997.7655,1377.6328,987.7655,1381.6328,991.7655,1377.6328" style="stroke:#52677A;stroke-width:1;"/><line style="stroke:#52677A;stroke-width:1.25;" x1="1225.9226" x2="1225.9226" y1="764.7451" y2="1377.6328"/><line style="stroke:#52677A;stroke-width:1.25;" x1="1225.9226" x2="1021.7655" y1="1377.6328" y2="1377.6328"/><polygon fill="#52677A" points="1031.7655,1373.6328,1021.7655,1377.6328,1031.7655,1381.6328,1027.7655,1377.6328" style="stroke:#52677A;stroke-width:1;"/><line style="stroke:#52677A;stroke-width:1.25;" x1="1133.7664" x2="1009.7655" y1="452.1533" y2="452.1533"/><line style="stroke:#52677A;stroke-width:1.25;" x1="1009.7655" x2="1009.7655" y1="452.1533" y2="484.1533"/><polygon fill="#52677A" points="1005.7655,474.1533,1009.7655,484.1533,1013.7655,474.1533,1009.7655,478.1533" style="stroke:#52677A;stroke-width:1;"/><line style="stroke:#52677A;stroke-width:1.25;" x1="1304.8348" x2="1428.8357" y1="452.1533" y2="452.1533"/><line style="stroke:#52677A;stroke-width:1.25;" x1="1428.8357" x2="1428.8357" y1="452.1533" y2="484.1533"/><polygon fill="#52677A" points="1424.8357,474.1533,1428.8357,484.1533,1432.8357,474.1533,1428.8357,478.1533" style="stroke:#52677A;stroke-width:1;"/><line style="stroke:#52677A;stroke-width:1.25;" x1="1009.7655" x2="1009.7655" y1="1389.6328" y2="1411.6328"/><line style="stroke:#52677A;stroke-width:1.25;" x1="1009.7655" x2="1207.3006" y1="1411.6328" y2="1411.6328"/><polygon fill="#52677A" points="1197.3006,1407.6328,1207.3006,1411.6328,1197.3006,1415.6328,1201.3006,1411.6328" style="stroke:#52677A;stroke-width:1;"/><line style="stroke:#52677A;stroke-width:1.25;" x1="1428.8357" x2="1428.8357" y1="536.3506" y2="1411.6328"/><line style="stroke:#52677A;stroke-width:1.25;" x1="1428.8357" x2="1231.3006" y1="1411.6328" y2="1411.6328"/><polygon fill="#52677A" points="1241.3006,1407.6328,1231.3006,1411.6328,1241.3006,1415.6328,1237.3006,1411.6328" style="stroke:#52677A;stroke-width:1;"/><line style="stroke:#52677A;stroke-width:1.25;" x1="1219.3006" x2="1219.3006" y1="420.1533" y2="440.1533"/><polygon fill="#52677A" points="1215.3006,430.1533,1219.3006,440.1533,1223.3006,430.1533,1219.3006,434.1533" style="stroke:#52677A;stroke-width:1;"/><line style="stroke:#52677A;stroke-width:1.25;" x1="1135.3079" x2="1109.2337" y1="1455.6328" y2="1455.6328"/><line style="stroke:#52677A;stroke-width:1.25;" x1="1109.2337" x2="1109.2337" y1="1455.6328" y2="1487.6328"/><polygon fill="#52677A" points="1105.2337,1477.6328,1109.2337,1487.6328,1113.2337,1477.6328,1109.2337,1481.6328" style="stroke:#52677A;stroke-width:1;"/><line style="stroke:#52677A;stroke-width:1.25;" x1="1303.2933" x2="1329.3675" y1="1455.6328" y2="1455.6328"/><line style="stroke:#52677A;stroke-width:1.25;" x1="1329.3675" x2="1329.3675" y1="1455.6328" y2="1487.6328"/><polygon fill="#52677A" points="1325.3675,1477.6328,1329.3675,1487.6328,1333.3675,1477.6328,1329.3675,1481.6328" style="stroke:#52677A;stroke-width:1;"/><line style="stroke:#52677A;stroke-width:1.25;" x1="1109.2337" x2="1109.2337" y1="1523.7314" y2="1617.9287"/><line style="stroke:#52677A;stroke-width:1.25;" x1="1109.2337" x2="1207.3006" y1="1617.9287" y2="1617.9287"/><polygon fill="#52677A" points="1197.3006,1613.9287,1207.3006,1617.9287,1197.3006,1621.9287,1201.3006,1617.9287" style="stroke:#52677A;stroke-width:1;"/><line style="stroke:#52677A;stroke-width:1.25;" x1="1219.3006" x2="1219.3006" y1="1423.6328" y2="1443.6328"/><polygon fill="#52677A" points="1215.3006,1433.6328,1219.3006,1443.6328,1223.3006,1433.6328,1219.3006,1437.6328" style="stroke:#52677A;stroke-width:1;"/><line style="stroke:#52677A;stroke-width:1.25;" x1="1219.3006" x2="1219.3006" y1="1744.6592" y2="1764.6592"/><polygon fill="#52677A" points="1215.3006,1754.6592,1219.3006,1764.6592,1223.3006,1754.6592,1219.3006,1758.6592" style="stroke:#52677A;stroke-width:1;"/><line style="stroke:#52677A;stroke-width:1.25;" x1="1762.5986" x2="1614.4695" y1="868.9424" y2="868.9424"/><line style="stroke:#52677A;stroke-width:1.25;" x1="1614.4695" x2="1614.4695" y1="868.9424" y2="890.9424"/><polygon fill="#52677A" points="1610.4695,880.9424,1614.4695,890.9424,1618.4695,880.9424,1614.4695,884.9424" style="stroke:#52677A;stroke-width:1;"/><line style="stroke:#52677A;stroke-width:1.25;" x1="1900.2256" x2="2038.3547" y1="868.9424" y2="868.9424"/><line style="stroke:#52677A;stroke-width:1.25;" x1="2038.3547" x2="2038.3547" y1="868.9424" y2="890.9424"/><polygon fill="#52677A" points="2034.3547,880.9424,2038.3547,890.9424,2042.3547,880.9424,2038.3547,884.9424" style="stroke:#52677A;stroke-width:1;"/><line style="stroke:#52677A;stroke-width:1.25;" x1="1614.4695" x2="1614.4695" y1="943.1396" y2="961.1396"/><line style="stroke:#52677A;stroke-width:1.25;" x1="1614.4695" x2="1819.4121" y1="961.1396" y2="961.1396"/><polygon fill="#52677A" points="1809.4121,957.1396,1819.4121,961.1396,1809.4121,965.1396,1813.4121,961.1396" style="stroke:#52677A;stroke-width:1;"/><line style="stroke:#52677A;stroke-width:1.25;" x1="2038.3547" x2="2038.3547" y1="943.1396" y2="961.1396"/><line style="stroke:#52677A;stroke-width:1.25;" x1="2038.3547" x2="1843.4121" y1="961.1396" y2="961.1396"/><polygon fill="#52677A" points="1853.4121,957.1396,1843.4121,961.1396,1853.4121,965.1396,1849.4121,961.1396" style="stroke:#52677A;stroke-width:1;"/><line style="stroke:#52677A;stroke-width:1.25;" x1="1831.4121" x2="1831.4121" y1="836.9424" y2="856.9424"/><polygon fill="#52677A" points="1827.4121,846.9424,1831.4121,856.9424,1835.4121,846.9424,1831.4121,850.9424" style="stroke:#52677A;stroke-width:1;"/><line style="stroke:#52677A;stroke-width:1.25;" x1="156.4443" x2="156.4443" y1="347.9561" y2="352.9561"/><line style="stroke:#52677A;stroke-width:1.25;" x1="156.4443" x2="1219.3006" y1="352.9561" y2="352.9561"/><line style="stroke:#52677A;stroke-width:1.25;" x1="1219.3006" x2="1219.3006" y1="352.9561" y2="367.9561"/><polygon fill="#52677A" points="1215.3006,357.9561,1219.3006,367.9561,1223.3006,357.9561,1219.3006,361.9561" style="stroke:#52677A;stroke-width:1;"/><line style="stroke:#52677A;stroke-width:1.25;" x1="1009.7655" x2="1009.7655" y1="592.4492" y2="597.4492"/><line style="stroke:#52677A;stroke-width:1.25;" x1="1009.7655" x2="2037.5692" y1="597.4492" y2="597.4492"/><line style="stroke:#52677A;stroke-width:1.25;" x1="2037.5692" x2="2037.5692" y1="597.4492" y2="612.4492"/><polygon fill="#52677A" points="2033.5692,602.4492,2037.5692,612.4492,2041.5692,602.4492,2037.5692,606.4492" style="stroke:#52677A;stroke-width:1;"/><line style="stroke:#52677A;stroke-width:1.25;" x1="793.6084" x2="793.6084" y1="780.8438" y2="785.8438"/><line style="stroke:#52677A;stroke-width:1.25;" x1="793.6084" x2="1831.4121" y1="785.8438" y2="785.8438"/><line style="stroke:#52677A;stroke-width:1.25;" x1="1831.4121" x2="1831.4121" y1="785.8438" y2="800.8438"/><polygon fill="#52677A" points="1827.4121,790.8438,1831.4121,800.8438,1835.4121,790.8438,1831.4121,794.8438" style="stroke:#52677A;stroke-width:1;"/><line style="stroke:#52677A;stroke-width:1.25;" x1="616.6807" x2="616.6807" y1="1073.2383" y2="1078.2383"/><line style="stroke:#52677A;stroke-width:1.25;" x1="616.6807" x2="1654.4844" y1="1078.2383" y2="1078.2383"/><line style="stroke:#52677A;stroke-width:1.25;" x1="1654.4844" x2="1654.4844" y1="1078.2383" y2="1093.2383"/><polygon fill="#52677A" points="1650.4844,1083.2383,1654.4844,1093.2383,1658.4844,1083.2383,1654.4844,1087.2383" style="stroke:#52677A;stroke-width:1;"/><line style="stroke:#52677A;stroke-width:1.25;" x1="1654.4844" x2="1654.4844" y1="1129.3369" y2="1134.3369"/><line style="stroke:#52677A;stroke-width:1.25;" x1="1654.4844" x2="616.6807" y1="1134.3369" y2="1134.3369"/><line style="stroke:#52677A;stroke-width:1.25;" x1="616.6807" x2="616.6807" y1="1134.3369" y2="1149.3369"/><polygon fill="#52677A" points="612.6807,1139.3369,616.6807,1149.3369,620.6807,1139.3369,616.6807,1143.3369" style="stroke:#52677A;stroke-width:1;"/><line style="stroke:#52677A;stroke-width:1.25;" x1="1831.4121" x2="1831.4121" y1="973.1396" y2="978.1396"/><line style="stroke:#52677A;stroke-width:1.25;" x1="1831.4121" x2="793.6084" y1="978.1396" y2="978.1396"/><line style="stroke:#52677A;stroke-width:1.25;" x1="793.6084" x2="793.6084" y1="978.1396" y2="993.1396"/><polygon fill="#52677A" points="789.6084,983.1396,793.6084,993.1396,797.6084,983.1396,793.6084,987.1396" style="stroke:#52677A;stroke-width:1;"/><line style="stroke:#52677A;stroke-width:1.25;" x1="2037.5692" x2="2037.5692" y1="664.6465" y2="669.6465"/><line style="stroke:#52677A;stroke-width:1.25;" x1="2037.5692" x2="1009.7655" y1="669.6465" y2="669.6465"/><line style="stroke:#52677A;stroke-width:1.25;" x1="1009.7655" x2="1009.7655" y1="669.6465" y2="684.6465"/><polygon fill="#52677A" points="1005.7655,674.6465,1009.7655,684.6465,1013.7655,674.6465,1009.7655,678.6465" style="stroke:#52677A;stroke-width:1;"/><line style="stroke:#52677A;stroke-width:1.25;" x1="1329.3675" x2="1329.3675" y1="1539.8301" y2="1544.8301"/><line style="stroke:#52677A;stroke-width:1.25;" x1="1329.3675" x2="266.5112" y1="1544.8301" y2="1544.8301"/><line style="stroke:#52677A;stroke-width:1.25;" x1="266.5112" x2="266.5112" y1="1544.8301" y2="1559.8301"/><polygon fill="#52677A" points="262.5112,1549.8301,266.5112,1559.8301,270.5112,1549.8301,266.5112,1553.8301" style="stroke:#52677A;stroke-width:1;"/><line style="stroke:#52677A;stroke-width:1.25;" x1="266.5112" x2="266.5112" y1="1595.9287" y2="1599.9287"/><line style="stroke:#52677A;stroke-width:1.25;" x1="266.5112" x2="1249.3006" y1="1599.9287" y2="1599.9287"/><line style="stroke:#52677A;stroke-width:1.25;" x1="1249.3006" x2="1249.3006" y1="1599.9287" y2="1617.9287"/><line style="stroke:#52677A;stroke-width:1.25;" x1="1249.3006" x2="1231.3006" y1="1617.9287" y2="1617.9287"/><polygon fill="#52677A" points="1241.3006,1613.9287,1231.3006,1617.9287,1241.3006,1621.9287,1237.3006,1617.9287" style="stroke:#52677A;stroke-width:1;"/><line style="stroke:#52677A;stroke-width:1.25;" x1="1219.3006" x2="1219.3006" y1="1629.9287" y2="1634.9287"/><line style="stroke:#52677A;stroke-width:1.25;" x1="1219.3006" x2="156.4443" y1="1634.9287" y2="1634.9287"/><line style="stroke:#52677A;stroke-width:1.25;" x1="156.4443" x2="156.4443" y1="1634.9287" y2="1649.9287"/><polygon fill="#52677A" points="152.4443,1639.9287,156.4443,1649.9287,160.4443,1639.9287,156.4443,1643.9287" style="stroke:#52677A;stroke-width:1;"/><line style="stroke:#52677A;stroke-width:1.25;" x1="156.4443" x2="156.4443" y1="1673.9287" y2="1691.4287"/><line style="stroke:#52677A;stroke-width:1.25;" x1="156.4443" x2="1219.3006" y1="1691.4287" y2="1691.4287"/><line style="stroke:#52677A;stroke-width:1.25;" x1="1219.3006" x2="1219.3006" y1="1691.4287" y2="1708.5605"/><polygon fill="#52677A" points="1215.3006,1698.5605,1219.3006,1708.5605,1223.3006,1698.5605,1219.3006,1702.5605" style="stroke:#52677A;stroke-width:1;"/><text fill="#244C66" font-family="Arial" font-size="14" lengthAdjust="spacing" textLength="35.8066" x="178.2883" y="91.5947">Aluno</text><text fill="#244C66" font-family="Arial" font-size="14" lengthAdjust="spacing" textLength="85.6064" x="897.4579" y="91.5947">Cliente Godot</text><text fill="#244C66" font-family="Arial" font-size="14" lengthAdjust="spacing" textLength="147.0342" x="1740.6106" y="91.5947">API NestJS / TypeORM</text><g class="caption" data-source-line="443"><text fill="#52677A" font-family="Arial" font-size="11" lengthAdjust="spacing" textLength="395.0063" x="873.0275" y="1797.9771">Fluxo AS-IS revisado em 15/09/2026 - sala, jogador e perguntas s&#227;o obrigat&#243;rios</text></g><!--SRC=[bLNBZXit4BpFLtJWonhmMbw_agmEXg3L6Bk07rZbg4jhfZMYmM4B94VU6FgOB788Sl39dp0_bYOvaaPQEOPlUf3LrTN5wb-KANHJ4dYgyHozMgiIIt9FLLFhBFFAQu8RjWPBX99Xp6P9XQh9U9wPaMuCmyNW1Pp3n7WR3X6iBAtGOljF-pU3_EB8EVcO5RZoYWtakhbZ64tFhwTWQQqS2Z3LSF5gyEptmVDdpryBd4EDJ-0JL_Ad3Q1agyPuT12mWETMLUZRRrQnoxBDeppFNrwztaH6cynvj3wxd98MicpG0WU4XT8GJmopJ4WI-WpWyjeisDPond1DKgfelvMgIjI5nJ2ScRY2zP8iD7K0Se9P2MLkPgP6uoaMiAABiWm5r_8DIojCm-tDeyaeVvN_jXbh9S8HlEMI_IRWtbBDQxbDRYM2iPFoQzGo0pipHtGEMWwmQW5dOwnNSajpWSh1khsNk-pUF0Q_90DdJjMFvMHiKXKgwl0MQvfw51hXbfuP0XHe2oWcq39bAOdMKeLnoiDqVyfQ04HMIAg82fgttD8PQVCgVvcFDgEFr_2UdB-PmW3- -7D57sxVRHBC-w2qLbyYa-vsO31lNB73xk0Ug9LQdeRgP0fEXdlOwm7Rmghan86bef7HfMyp8vxRkilqoqhXx_C_xY2EQ2KG_Vk1v4q7_Qcz1xfJpjCfdj40ZLTRkBtTBQaqi9afqCbBMA2Z9o2-zaqmoKAPI28sCzp16HQzn2PBl_i9O2GCZM-w1sd5SHx1XC_jl_25WeXFTyV9b16b-u6q8pWBXtkSnpOugQTUe0WNGfNhWre2lYCdm6gnLVZ4Q0zri-HZwCJ71DTNtr5lF-TzFfI7q_p1FEC8OYqP8jUHrHuh12Aw7jH9ueUka6jx09Bd59pjmoHHIr2OX3ceS8vMUNcySHIYPdk_9jKh5lIu5ThS0EgggN67UreDW90plqxootTekzUKehTBf9JBPK-QK-CLcFngCfwCHPXAd6i5QO5w6PEXd-t3lcbsipq5-PE0UxY7O3y5jGKwXjc2JExKF0IV9XbGU5KIY38dqIl4AYZJ1Mf0IrZPAG-4GNtiBpt99jcgxTTJwNGvvdgboQS4F0hQOw8xXbsNiXrOHo-rVmcZj77baM1QQidjQGLsjQoaWG28XqAaT8kEmoifqnP9VQLj29-NIlRz_pGZIoRH2o7HTPKTAxAruIYk5GQFyqR7pRZBYg6iQ5vb_m40]--></g></svg>