<svg xmlns="http://www.w3.org/2000/svg" xmlns:xlink="http://www.w3.org/1999/xlink" contentStyleType="text/css" data-diagram-type="ACTIVITY" height="1781px" preserveAspectRatio="none" style="width:2158px;height:1781px;background:#FBFCFE;" version="1.1" viewBox="0 0 2158 1781" width="2158px" zoomAndPan="magnify"><title>Jornada do Conhecimento</title><defs/><g><rect fill="#FBFCFE" height="1781" style="stroke:none;stroke-width:1;" width="2158" x="0" y="0"/><g class="title" data-source-line="366"><text fill="#17324D" font-family="Arial" font-size="20" font-weight="bold" lengthAdjust="spacing" textLength="252.2461" x="951.728" y="38.7598">Jornada do Conhecimento</text><text fill="#17324D" font-family="Arial" font-size="20" font-weight="bold" lengthAdjust="spacing" textLength="494.5996" x="830.5512" y="61.7578">Professor 6/6 - Acompanhamento, relat&#243;rios e sa&#237;da</text></g><rect fill="#E9F3F6" height="16.0986" style="stroke:#E9F3F6;stroke-width:1;" width="2125.702" x="15" y="78.4629"/><rect fill="#EAF5F8" height="1674.9609" style="stroke:#EAF5F8;stroke-width:1;" width="1094.9459" x="15" y="78.4629"/><ellipse cx="678.2354" cy="109.5615" fill="#222222" rx="10" ry="10" style="stroke:#222222;stroke-width:1;"/><path d="M844.0313,138.812 L844.0313,153.6108 L824.0313,157.6108 L844.0313,161.6108 L844.0313,176.4097 A0,0 0 0 0 844.0313,176.4097 L1077.8087,176.4097 A0,0 0 0 0 1077.8087,176.4097 L1077.8087,148.812 L1067.8087,138.812 L844.0313,138.812 A0,0 0 0 0 844.0313,138.812" fill="#FFF9E8" style="stroke:#D2A44C;stroke-width:0.5;"/><path d="M1067.8087,138.812 L1067.8087,148.812 L1077.8087,148.812 L1067.8087,138.812" fill="#FFF9E8" style="stroke:#D2A44C;stroke-width:0.5;"/><text fill="#3A3428" font-family="Arial" font-size="12" lengthAdjust="spacing" textLength="212.7773" x="850.0313" y="155.0679">O temporizador existe em todo o painel,</text><text fill="#3A3428" font-family="Arial" font-size="12" lengthAdjust="spacing" textLength="202.834" x="850.0313" y="168.8667">independentemente da p&#225;gina aberta.</text><rect fill="#F4FAFC" height="36.0986" rx="6" ry="6" style="stroke:#2D6478;stroke-width:0.5;" width="291.5918" x="532.4395" y="139.5615"/><text fill="#172433" font-family="Arial" font-size="14" lengthAdjust="spacing" textLength="271.5918" x="542.4395" y="162.6934">Manter um temporizador em segundo plano</text><rect fill="#F4FAFC" height="52.1973" rx="6" ry="6" style="stroke:#2D6478;stroke-width:0.5;" width="196.6543" x="579.9083" y="196.4097"/><text fill="#172433" font-family="Arial" font-size="14" lengthAdjust="spacing" textLength="176.6543" x="589.9083" y="219.5415">A cada 5 segundos, verificar</text><text fill="#172433" font-family="Arial" font-size="14" lengthAdjust="spacing" textLength="163.4473" x="589.9083" y="235.6401">as guardas da atualiza&#231;&#227;o</text><path d="M821.7623,258.6069 L821.7623,296.2046 L1104.9459,296.2046 L1104.9459,268.6069 L1094.9459,258.6069 L821.7623,258.6069" fill="#FFF9E8" style="stroke:#D2A44C;stroke-width:0.5;"/><path d="M1094.9459,258.6069 L1094.9459,268.6069 L1104.9459,268.6069 L1094.9459,258.6069" fill="#FFF9E8" style="stroke:#D2A44C;stroke-width:0.5;"/><text fill="#3A3428" font-family="Arial" font-size="12" lengthAdjust="spacing" textLength="262.1836" x="827.7623" y="274.8628">Este ciclo continua enquanto o painel est&#225; aberto</text><text fill="#3A3428" font-family="Arial" font-size="12" lengthAdjust="spacing" textLength="250.1309" x="827.7623" y="288.6616">e ocorre em paralelo &#224;s escolhas do professor.</text><polygon fill="#FFF4D6" points="546.7086,296.2046,809.7623,296.2046,821.7623,308.2046,809.7623,320.2046,546.7086,320.2046,534.7086,308.2046,546.7086,296.2046" style="stroke:#B87716;stroke-width:0.5;"/><text fill="#3A3428" font-family="Arial" font-size="14" lengthAdjust="spacing" textLength="263.0537" x="546.7086" y="313.2871">H&#225; sala e nenhuma consulta concorrente?</text><text fill="#000000" font-family="Arial" font-size="14" lengthAdjust="spacing" textLength="21.7725" x="512.9361" y="305.2378">sim</text><text fill="#000000" font-family="Arial" font-size="14" lengthAdjust="spacing" textLength="23.3584" x="821.7623" y="305.2378">n&#227;o</text><rect fill="#F4FAFC" height="36.0986" rx="6" ry="6" style="stroke:#2D6478;stroke-width:0.5;" width="139.8477" x="374.3229" y="340.2046"/><text fill="#172433" font-family="Arial" font-size="14" lengthAdjust="spacing" textLength="119.8477" x="384.3229" y="363.3364">Solicitar dashboard</text><rect fill="#F4FAFC" height="36.0986" rx="6" ry="6" style="stroke:#2D6478;stroke-width:0.5;" width="191.1992" x="348.6471" y="468.5005"/><text fill="#172433" font-family="Arial" font-size="14" lengthAdjust="spacing" textLength="171.1992" x="358.6471" y="491.6323">Solicitar respostas e alunos</text><polygon fill="#FFF4D6" points="372.6437,596.7964,515.8497,596.7964,527.8497,608.7964,515.8497,620.7964,372.6437,620.7964,360.6437,608.7964,372.6437,596.7964" style="stroke:#B87716;stroke-width:0.5;"/><text fill="#3A3428" font-family="Arial" font-size="14" lengthAdjust="spacing" textLength="143.2061" x="372.6437" y="613.8789">Dashboard dispon&#237;vel?</text><text fill="#000000" font-family="Arial" font-size="14" lengthAdjust="spacing" textLength="21.7725" x="338.8712" y="605.8296">sim</text><text fill="#000000" font-family="Arial" font-size="14" lengthAdjust="spacing" textLength="23.3584" x="527.8497" y="605.8296">n&#227;o</text><polygon fill="#FFF4D6" points="171.0168,630.7964,318.8782,630.7964,330.8782,642.7964,318.8782,654.7964,171.0168,654.7964,159.0168,642.7964,171.0168,630.7964" style="stroke:#B87716;stroke-width:0.5;"/><text fill="#3A3428" font-family="Arial" font-size="14" lengthAdjust="spacing" textLength="147.8613" x="171.0168" y="647.8789">Respostas dispon&#237;veis?</text><text fill="#000000" font-family="Arial" font-size="14" lengthAdjust="spacing" textLength="21.7725" x="137.2444" y="639.8296">sim</text><text fill="#000000" font-family="Arial" font-size="14" lengthAdjust="spacing" textLength="23.3584" x="330.8782" y="639.8296">n&#227;o</text><rect fill="#F4FAFC" height="52.1973" rx="6" ry="6" style="stroke:#2D6478;stroke-width:0.5;" width="205.9648" x="21" y="664.7964"/><text fill="#172433" font-family="Arial" font-size="14" lengthAdjust="spacing" textLength="185.9648" x="31" y="687.9282">Atualizar m&#233;tricas, atividades,</text><text fill="#172433" font-family="Arial" font-size="14" lengthAdjust="spacing" textLength="102.7373" x="31" y="704.0269">alunos e ranking</text><rect fill="#F4FAFC" height="52.1973" rx="6" ry="6" style="stroke:#2D6478;stroke-width:0.5;" width="237.8955" x="246.9648" y="664.7964"/><text fill="#172433" font-family="Arial" font-size="14" lengthAdjust="spacing" textLength="217.8955" x="256.9648" y="687.9282">Atualizar os agregados e preservar</text><text fill="#172433" font-family="Arial" font-size="14" lengthAdjust="spacing" textLength="165.7715" x="256.9648" y="704.0269">o &#250;ltimo detalhe carregado</text><polygon fill="#FFF4D6" points="244.9475,722.9937,256.9475,734.9937,244.9475,746.9937,232.9475,734.9937,244.9475,722.9937" style="stroke:#B87716;stroke-width:0.5;"/><rect fill="#F4FAFC" height="36.0986" rx="6" ry="6" style="stroke:#2D6478;stroke-width:0.5;" width="257.3711" x="514.8604" y="630.7964"/><text fill="#172433" font-family="Arial" font-size="14" lengthAdjust="spacing" textLength="237.3711" x="524.8604" y="653.9282">Ignorar a atualiza&#231;&#227;o autom&#225;tica falha</text><polygon fill="#FFF4D6" points="444.2467,752.9937,456.2467,764.9937,444.2467,776.9937,432.2467,764.9937,444.2467,752.9937" style="stroke:#B87716;stroke-width:0.5;"/><rect fill="#F4FAFC" height="36.0986" rx="6" ry="6" style="stroke:#2D6478;stroke-width:0.5;" width="219.9854" x="802.2314" y="340.2046"/><text fill="#172433" font-family="Arial" font-size="14" lengthAdjust="spacing" textLength="199.9854" x="812.2314" y="363.3364">Pular este ciclo do temporizador</text><polygon fill="#FFF4D6" points="678.2354,786.9937,690.2354,798.9937,678.2354,810.9937,666.2354,798.9937,678.2354,786.9937" style="stroke:#B87716;stroke-width:0.5;"/><rect fill="#F4FAFC" height="52.1973" rx="6" ry="6" style="stroke:#2D6478;stroke-width:0.5;" width="170.958" x="396.6432" y="1068.3389"/><text fill="#172433" font-family="Arial" font-size="14" lengthAdjust="spacing" textLength="150.958" x="406.6432" y="1091.4707">Enviar sala, professor e,</text><text fill="#172433" font-family="Arial" font-size="14" lengthAdjust="spacing" textLength="132.3164" x="406.6432" y="1107.5693">no individual, jogador</text><polygon fill="#FFF4D6" points="405.4641,1268.832,558.7805,1268.832,570.7805,1280.832,558.7805,1292.832,405.4641,1292.832,393.4641,1280.832,405.4641,1268.832" style="stroke:#B87716;stroke-width:0.5;"/><text fill="#3A3428" font-family="Arial" font-size="14" lengthAdjust="spacing" textLength="153.3164" x="405.4641" y="1285.9146">Arquivo v&#225;lido recebido?</text><text fill="#000000" font-family="Arial" font-size="14" lengthAdjust="spacing" textLength="21.7725" x="371.6916" y="1277.8652">sim</text><text fill="#000000" font-family="Arial" font-size="14" lengthAdjust="spacing" textLength="23.3584" x="570.7805" y="1277.8652">n&#227;o</text><rect fill="#F4FAFC" height="36.0986" rx="6" ry="6" style="stroke:#2D6478;stroke-width:0.5;" width="175.6406" x="234.3784" y="1302.832"/><text fill="#172433" font-family="Arial" font-size="14" lengthAdjust="spacing" textLength="155.6406" x="244.3784" y="1325.9639">Abrir o seletor de destino</text><polygon fill="#FFF4D6" points="223.7578,1358.9307,420.6396,1358.9307,432.6396,1370.9307,420.6396,1382.9307,223.7578,1382.9307,211.7578,1370.9307,223.7578,1358.9307" style="stroke:#B87716;stroke-width:0.5;"/><text fill="#3A3428" font-family="Arial" font-size="14" lengthAdjust="spacing" textLength="196.8818" x="223.7578" y="1376.0132">Destino confirmado e grav&#225;vel?</text><text fill="#000000" font-family="Arial" font-size="14" lengthAdjust="spacing" textLength="21.7725" x="189.9853" y="1367.9639">sim</text><text fill="#000000" font-family="Arial" font-size="14" lengthAdjust="spacing" textLength="23.3584" x="432.6396" y="1367.9639">n&#227;o</text><rect fill="#EAF7EF" height="36.0986" rx="6" ry="6" style="stroke:#2D6478;stroke-width:0.5;" width="197.4199" x="103.0478" y="1392.9307"/><text fill="#172433" font-family="Arial" font-size="14" lengthAdjust="spacing" textLength="177.4199" x="113.0478" y="1416.0625">Salvar o relat&#243;rio localmente</text><rect fill="#F4FAFC" height="52.1973" rx="6" ry="6" style="stroke:#2D6478;stroke-width:0.5;" width="150.7236" x="367.2778" y="1392.9307"/><text fill="#172433" font-family="Arial" font-size="14" lengthAdjust="spacing" textLength="130.7236" x="377.2778" y="1416.0625">Cancelar ou informar</text><text fill="#172433" font-family="Arial" font-size="14" lengthAdjust="spacing" textLength="111.3027" x="377.2778" y="1432.1611">falha de grava&#231;&#227;o</text><polygon fill="#FFF4D6" points="322.1987,1451.1279,334.1987,1463.1279,322.1987,1475.1279,310.1987,1463.1279,322.1987,1451.1279" style="stroke:#B87716;stroke-width:0.5;"/><rect fill="#FDECEC" height="36.0986" rx="6" ry="6" style="stroke:#2D6478;stroke-width:0.5;" width="188.0889" x="548.0014" y="1302.832"/><text fill="#172433" font-family="Arial" font-size="14" lengthAdjust="spacing" textLength="168.0889" x="558.0014" y="1325.9639">Exibir o erro de exporta&#231;&#227;o</text><polygon fill="#FFF4D6" points="482.1223,1481.1279,494.1223,1493.1279,482.1223,1505.1279,470.1223,1493.1279,482.1223,1481.1279" style="stroke:#B87716;stroke-width:0.5;"/><rect fill="#F4FAFC" height="52.1973" rx="6" ry="6" style="stroke:#2D6478;stroke-width:0.5;" width="172.5166" x="788.0903" y="874.9937"/><text fill="#172433" font-family="Arial" font-size="14" lengthAdjust="spacing" textLength="152.5166" x="798.0903" y="898.1255">Exibir estado sem sala e</text><text fill="#172433" font-family="Arial" font-size="14" lengthAdjust="spacing" textLength="143.9717" x="798.0903" y="914.2241">desabilitar exporta&#231;&#245;es</text><rect fill="#F4FAFC" height="52.1973" rx="6" ry="6" style="stroke:#2D6478;stroke-width:0.5;" width="247.2266" x="554.6221" y="1659.2266"/><text fill="#172433" font-family="Arial" font-size="14" lengthAdjust="spacing" textLength="177.3994" x="564.6221" y="1682.3584">Parar o temporizador, limpar</text><text fill="#172433" font-family="Arial" font-size="14" lengthAdjust="spacing" textLength="227.2266" x="564.6221" y="1698.457">ProfessorSession e voltar ao acesso</text><ellipse cx="678.2354" cy="1742.4238" fill="none" rx="11" ry="11" style="stroke:#222222;stroke-width:1;"/><ellipse cx="678.2354" cy="1742.4238" fill="#222222" rx="6" ry="6" style="stroke:#222222;stroke-width:1;"/><line style="stroke:#9DB1BC;stroke-width:1.5;" x1="15" x2="15" y1="78.4629" y2="1753.4238"/><rect fill="#EDF4FA" height="1674.9609" style="stroke:#EDF4FA;stroke-width:1;" width="590.8751" x="1109.9459" y="78.4629"/><path d="M1412.6373,258.6069 L1412.6373,296.2046 L1695.8209,296.2046 L1695.8209,268.6069 L1685.8209,258.6069 L1412.6373,258.6069" fill="#FFF9E8" style="stroke:#D2A44C;stroke-width:0.5;"/><path d="M1685.8209,258.6069 L1685.8209,268.6069 L1695.8209,268.6069 L1685.8209,258.6069" fill="#FFF9E8" style="stroke:#D2A44C;stroke-width:0.5;"/><text fill="#3A3428" font-family="Arial" font-size="12" lengthAdjust="spacing" textLength="262.1836" x="1418.6373" y="274.8628">Este ciclo continua enquanto o painel est&#225; aberto</text><text fill="#3A3428" font-family="Arial" font-size="12" lengthAdjust="spacing" textLength="250.1309" x="1418.6373" y="288.6616">e ocorre em paralelo &#224;s escolhas do professor.</text><rect fill="#F4FAFC" height="52.1973" rx="6" ry="6" style="stroke:#2D6478;stroke-width:0.5;" width="242.5713" x="1115.9459" y="396.3032"/><text fill="#172433" font-family="Arial" font-size="14" lengthAdjust="spacing" textLength="222.5713" x="1125.9459" y="419.4351">Calcular indicadores, desempenhos</text><text fill="#172433" font-family="Arial" font-size="14" lengthAdjust="spacing" textLength="106.627" x="1125.9459" y="435.5337">e ranking da sala</text><rect fill="#F4FAFC" height="52.1973" rx="6" ry="6" style="stroke:#2D6478;stroke-width:0.5;" width="188.0889" x="1143.1871" y="524.5991"/><text fill="#172433" font-family="Arial" font-size="14" lengthAdjust="spacing" textLength="168.0889" x="1153.1871" y="547.731">Retornar hist&#243;rico e estado</text><text fill="#172433" font-family="Arial" font-size="14" lengthAdjust="spacing" textLength="122.1992" x="1153.1871" y="563.8296">atual dos jogadores</text><rect fill="#F4FAFC" height="52.1973" rx="6" ry="6" style="stroke:#2D6478;stroke-width:0.5;" width="255.0605" x="1147.5768" y="1140.5361"/><text fill="#172433" font-family="Arial" font-size="14" lengthAdjust="spacing" textLength="171.2266" x="1157.5768" y="1163.668">Validar propriedade da sala</text><text fill="#172433" font-family="Arial" font-size="14" lengthAdjust="spacing" textLength="235.0605" x="1157.5768" y="1179.7666">e v&#237;nculo do jogador quando aplic&#225;vel</text><rect fill="#F4FAFC" height="36.0986" rx="6" ry="6" style="stroke:#2D6478;stroke-width:0.5;" width="179.5234" x="1185.3453" y="1212.7334"/><text fill="#172433" font-family="Arial" font-size="14" lengthAdjust="spacing" textLength="159.5234" x="1195.3453" y="1235.8652">Gerar o arquivo solicitado</text><line style="stroke:#9DB1BC;stroke-width:1.5;" x1="1109.9459" x2="1109.9459" y1="78.4629" y2="1753.4238"/><rect fill="#FFF4D6" height="1674.9609" style="stroke:#FFF4D6;stroke-width:1;" width="438.9363" x="1700.8209" y="78.4629"/><polygon fill="#FFF4D6" points="1998.1509,830.9937,2087.6538,830.9937,2099.6538,842.9937,2087.6538,854.9937,1998.1509,854.9937,1986.1509,842.9937,1998.1509,830.9937" style="stroke:#B87716;stroke-width:0.5;"/><text fill="#3A3428" font-family="Arial" font-size="14" lengthAdjust="spacing" textLength="89.5029" x="1998.1509" y="848.0762">H&#225; sala atual?</text><text fill="#000000" font-family="Arial" font-size="14" lengthAdjust="spacing" textLength="21.7725" x="1964.3784" y="840.0269">sim</text><text fill="#000000" font-family="Arial" font-size="14" lengthAdjust="spacing" textLength="23.3584" x="2099.6538" y="840.0269">n&#227;o</text><rect fill="#F4FAFC" height="36.0986" rx="6" ry="6" style="stroke:#2D6478;stroke-width:0.5;" width="279.9365" x="1706.8209" y="874.9937"/><text fill="#172433" font-family="Arial" font-size="14" lengthAdjust="spacing" textLength="259.9365" x="1716.8209" y="898.1255">Analisar Dashboard ou Acompanhamento</text><rect fill="#F4FAFC" height="52.1973" rx="6" ry="6" style="stroke:#2D6478;stroke-width:0.5;" width="263.5371" x="1715.0206" y="996.1416"/><text fill="#172433" font-family="Arial" font-size="14" lengthAdjust="spacing" textLength="243.5371" x="1725.0206" y="1019.2734">Escolher PDF individual, PDF da turma</text><text fill="#172433" font-family="Arial" font-size="14" lengthAdjust="spacing" textLength="132.2959" x="1725.0206" y="1035.3721">ou CSV de respostas</text><polygon fill="#FFF4D6" points="1789.2067,946.0923,1904.3717,946.0923,1916.3717,958.0923,1904.3717,970.0923,1789.2067,970.0923,1777.2067,958.0923,1789.2067,946.0923" style="stroke:#B87716;stroke-width:0.5;"/><text fill="#000000" font-family="Arial" font-size="14" lengthAdjust="spacing" textLength="21.7725" x="1850.7892" y="983.2241">sim</text><text fill="#3A3428" font-family="Arial" font-size="14" lengthAdjust="spacing" textLength="115.165" x="1789.2067" y="963.1748">Exportar relat&#243;rio?</text><polygon fill="#FFF4D6" points="1846.7892,1525.1279,1858.7892,1537.1279,1846.7892,1549.1279,1834.7892,1537.1279,1846.7892,1525.1279" style="stroke:#B87716;stroke-width:0.5;"/><polygon fill="#FFF4D6" points="2042.9023,1559.1279,2054.9023,1571.1279,2042.9023,1583.1279,2030.9023,1571.1279,2042.9023,1559.1279" style="stroke:#B87716;stroke-width:0.5;"/><rect fill="#F4FAFC" height="36.0986" rx="6" ry="6" style="stroke:#2D6478;stroke-width:0.5;" width="133.6064" x="1976.0991" y="1603.1279"/><text fill="#172433" font-family="Arial" font-size="14" lengthAdjust="spacing" textLength="113.6064" x="1986.0991" y="1626.2598">Encerrar a sess&#227;o</text><line style="stroke:#9DB1BC;stroke-width:1.5;" x1="1700.8209" x2="1700.8209" y1="78.4629" y2="1753.4238"/><line style="stroke:#9DB1BC;stroke-width:1.5;" x1="2139.7572" x2="2139.7572" y1="78.4629" y2="1753.4238"/><line style="stroke:#52677A;stroke-width:1.25;" x1="678.2354" x2="678.2354" y1="119.5615" y2="139.5615"/><polygon fill="#52677A" points="674.2354,129.5615,678.2354,139.5615,682.2354,129.5615,678.2354,133.5615" style="stroke:#52677A;stroke-width:1;"/><line style="stroke:#52677A;stroke-width:1.25;" x1="678.2354" x2="678.2354" y1="175.6602" y2="196.4097"/><polygon fill="#52677A" points="674.2354,186.4097,678.2354,196.4097,682.2354,186.4097,678.2354,190.4097" style="stroke:#52677A;stroke-width:1;"/><line style="stroke:#52677A;stroke-width:1.25;" x1="159.0168" x2="123.9824" y1="642.7964" y2="642.7964"/><line style="stroke:#52677A;stroke-width:1.25;" x1="123.9824" x2="123.9824" y1="642.7964" y2="664.7964"/><polygon fill="#52677A" points="119.9824,654.7964,123.9824,664.7964,127.9824,654.7964,123.9824,658.7964" style="stroke:#52677A;stroke-width:1;"/><line style="stroke:#52677A;stroke-width:1.25;" x1="330.8782" x2="365.9126" y1="642.7964" y2="642.7964"/><line style="stroke:#52677A;stroke-width:1.25;" x1="365.9126" x2="365.9126" y1="642.7964" y2="664.7964"/><polygon fill="#52677A" points="361.9126,654.7964,365.9126,664.7964,369.9126,654.7964,365.9126,658.7964" style="stroke:#52677A;stroke-width:1;"/><line style="stroke:#52677A;stroke-width:1.25;" x1="123.9824" x2="123.9824" y1="716.9937" y2="734.9937"/><line style="stroke:#52677A;stroke-width:1.25;" x1="123.9824" x2="232.9475" y1="734.9937" y2="734.9937"/><polygon fill="#52677A" points="222.9475,730.9937,232.9475,734.9937,222.9475,738.9937,226.9475,734.9937" style="stroke:#52677A;stroke-width:1;"/><line style="stroke:#52677A;stroke-width:1.25;" x1="365.9126" x2="365.9126" y1="716.9937" y2="734.9937"/><line style="stroke:#52677A;stroke-width:1.25;" x1="365.9126" x2="256.9475" y1="734.9937" y2="734.9937"/><polygon fill="#52677A" points="266.9475,730.9937,256.9475,734.9937,266.9475,738.9937,262.9475,734.9937" style="stroke:#52677A;stroke-width:1;"/><line style="stroke:#52677A;stroke-width:1.25;" x1="360.6437" x2="244.9475" y1="608.7964" y2="608.7964"/><line style="stroke:#52677A;stroke-width:1.25;" x1="244.9475" x2="244.9475" y1="608.7964" y2="630.7964"/><polygon fill="#52677A" points="240.9475,620.7964,244.9475,630.7964,248.9475,620.7964,244.9475,624.7964" style="stroke:#52677A;stroke-width:1;"/><line style="stroke:#52677A;stroke-width:1.25;" x1="527.8497" x2="643.5459" y1="608.7964" y2="608.7964"/><line style="stroke:#52677A;stroke-width:1.25;" x1="643.5459" x2="643.5459" y1="608.7964" y2="630.7964"/><polygon fill="#52677A" points="639.5459,620.7964,643.5459,630.7964,647.5459,620.7964,643.5459,624.7964" style="stroke:#52677A;stroke-width:1;"/><line style="stroke:#52677A;stroke-width:1.25;" x1="244.9475" x2="244.9475" y1="746.9937" y2="764.9937"/><line style="stroke:#52677A;stroke-width:1.25;" x1="244.9475" x2="432.2467" y1="764.9937" y2="764.9937"/><polygon fill="#52677A" points="422.2467,760.9937,432.2467,764.9937,422.2467,768.9937,426.2467,764.9937" style="stroke:#52677A;stroke-width:1;"/><line style="stroke:#52677A;stroke-width:1.25;" x1="643.5459" x2="643.5459" y1="666.895" y2="764.9937"/><line style="stroke:#52677A;stroke-width:1.25;" x1="643.5459" x2="456.2467" y1="764.9937" y2="764.9937"/><polygon fill="#52677A" points="466.2467,760.9937,456.2467,764.9937,466.2467,768.9937,462.2467,764.9937" style="stroke:#52677A;stroke-width:1;"/><line style="stroke:#52677A;stroke-width:1.25;" x1="534.7086" x2="444.2467" y1="308.2046" y2="308.2046"/><line style="stroke:#52677A;stroke-width:1.25;" x1="444.2467" x2="444.2467" y1="308.2046" y2="340.2046"/><polygon fill="#52677A" points="440.2467,330.2046,444.2467,340.2046,448.2467,330.2046,444.2467,334.2046" style="stroke:#52677A;stroke-width:1;"/><line style="stroke:#52677A;stroke-width:1.25;" x1="821.7623" x2="912.2241" y1="308.2046" y2="308.2046"/><line style="stroke:#52677A;stroke-width:1.25;" x1="912.2241" x2="912.2241" y1="308.2046" y2="340.2046"/><polygon fill="#52677A" points="908.2241,330.2046,912.2241,340.2046,916.2241,330.2046,912.2241,334.2046" style="stroke:#52677A;stroke-width:1;"/><line style="stroke:#52677A;stroke-width:1.25;" x1="444.2467" x2="444.2467" y1="776.9937" y2="798.9937"/><line style="stroke:#52677A;stroke-width:1.25;" x1="444.2467" x2="666.2354" y1="798.9937" y2="798.9937"/><polygon fill="#52677A" points="656.2354,794.9937,666.2354,798.9937,656.2354,802.9937,660.2354,798.9937" style="stroke:#52677A;stroke-width:1;"/><line style="stroke:#52677A;stroke-width:1.25;" x1="912.2241" x2="912.2241" y1="376.3032" y2="798.9937"/><line style="stroke:#52677A;stroke-width:1.25;" x1="912.2241" x2="690.2354" y1="798.9937" y2="798.9937"/><polygon fill="#52677A" points="700.2354,794.9937,690.2354,798.9937,700.2354,802.9937,696.2354,798.9937" style="stroke:#52677A;stroke-width:1;"/><line style="stroke:#52677A;stroke-width:1.25;" x1="678.2354" x2="678.2354" y1="248.6069" y2="296.2046"/><polygon fill="#52677A" points="674.2354,286.2046,678.2354,296.2046,682.2354,286.2046,678.2354,290.2046" style="stroke:#52677A;stroke-width:1;"/><line style="stroke:#52677A;stroke-width:1.25;" x1="211.7578" x2="201.7578" y1="1370.9307" y2="1370.9307"/><line style="stroke:#52677A;stroke-width:1.25;" x1="201.7578" x2="201.7578" y1="1370.9307" y2="1392.9307"/><polygon fill="#52677A" points="197.7578,1382.9307,201.7578,1392.9307,205.7578,1382.9307,201.7578,1386.9307" style="stroke:#52677A;stroke-width:1;"/><line style="stroke:#52677A;stroke-width:1.25;" x1="432.6396" x2="442.6396" y1="1370.9307" y2="1370.9307"/><line style="stroke:#52677A;stroke-width:1.25;" x1="442.6396" x2="442.6396" y1="1370.9307" y2="1392.9307"/><polygon fill="#52677A" points="438.6396,1382.9307,442.6396,1392.9307,446.6396,1382.9307,442.6396,1386.9307" style="stroke:#52677A;stroke-width:1;"/><line style="stroke:#52677A;stroke-width:1.25;" x1="201.7578" x2="201.7578" y1="1429.0293" y2="1463.1279"/><line style="stroke:#52677A;stroke-width:1.25;" x1="201.7578" x2="310.1987" y1="1463.1279" y2="1463.1279"/><polygon fill="#52677A" points="300.1987,1459.1279,310.1987,1463.1279,300.1987,1467.1279,304.1987,1463.1279" style="stroke:#52677A;stroke-width:1;"/><line style="stroke:#52677A;stroke-width:1.25;" x1="442.6396" x2="442.6396" y1="1445.1279" y2="1463.1279"/><line style="stroke:#52677A;stroke-width:1.25;" x1="442.6396" x2="334.1987" y1="1463.1279" y2="1463.1279"/><polygon fill="#52677A" points="344.1987,1459.1279,334.1987,1463.1279,344.1987,1467.1279,340.1987,1463.1279" style="stroke:#52677A;stroke-width:1;"/><line style="stroke:#52677A;stroke-width:1.25;" x1="322.1987" x2="322.1987" y1="1338.9307" y2="1358.9307"/><polygon fill="#52677A" points="318.1987,1348.9307,322.1987,1358.9307,326.1987,1348.9307,322.1987,1352.9307" style="stroke:#52677A;stroke-width:1;"/><line style="stroke:#52677A;stroke-width:1.25;" x1="393.4641" x2="322.1987" y1="1280.832" y2="1280.832"/><line style="stroke:#52677A;stroke-width:1.25;" x1="322.1987" x2="322.1987" y1="1280.832" y2="1302.832"/><polygon fill="#52677A" points="318.1987,1292.832,322.1987,1302.832,326.1987,1292.832,322.1987,1296.832" style="stroke:#52677A;stroke-width:1;"/><line style="stroke:#52677A;stroke-width:1.25;" x1="570.7805" x2="642.0458" y1="1280.832" y2="1280.832"/><line style="stroke:#52677A;stroke-width:1.25;" x1="642.0458" x2="642.0458" y1="1280.832" y2="1302.832"/><polygon fill="#52677A" points="638.0458,1292.832,642.0458,1302.832,646.0458,1292.832,642.0458,1296.832" style="stroke:#52677A;stroke-width:1;"/><line style="stroke:#52677A;stroke-width:1.25;" x1="322.1987" x2="322.1987" y1="1475.1279" y2="1493.1279"/><line style="stroke:#52677A;stroke-width:1.25;" x1="322.1987" x2="470.1223" y1="1493.1279" y2="1493.1279"/><polygon fill="#52677A" points="460.1223,1489.1279,470.1223,1493.1279,460.1223,1497.1279,464.1223,1493.1279" style="stroke:#52677A;stroke-width:1;"/><line style="stroke:#52677A;stroke-width:1.25;" x1="642.0458" x2="642.0458" y1="1338.9307" y2="1493.1279"/><line style="stroke:#52677A;stroke-width:1.25;" x1="642.0458" x2="494.1223" y1="1493.1279" y2="1493.1279"/><polygon fill="#52677A" points="504.1223,1489.1279,494.1223,1493.1279,504.1223,1497.1279,500.1223,1493.1279" style="stroke:#52677A;stroke-width:1;"/><line style="stroke:#52677A;stroke-width:1.25;" x1="678.2354" x2="678.2354" y1="1711.4238" y2="1731.4238"/><polygon fill="#52677A" points="674.2354,1721.4238,678.2354,1731.4238,682.2354,1721.4238,678.2354,1725.4238" style="stroke:#52677A;stroke-width:1;"/><line style="stroke:#52677A;stroke-width:1.25;" x1="1275.1071" x2="1275.1071" y1="1192.7334" y2="1212.7334"/><polygon fill="#52677A" points="1271.1071,1202.7334,1275.1071,1212.7334,1279.1071,1202.7334,1275.1071,1206.7334" style="stroke:#52677A;stroke-width:1;"/><line style="stroke:#52677A;stroke-width:1.25;" x1="1846.7892" x2="1846.7892" y1="970.0923" y2="996.1416"/><polygon fill="#52677A" points="1842.7892,986.1416,1846.7892,996.1416,1850.7892,986.1416,1846.7892,990.1416" style="stroke:#52677A;stroke-width:1;"/><line style="stroke:#52677A;stroke-width:1.25;" x1="1916.3717" x2="2120.7572" y1="958.0923" y2="958.0923"/><polygon fill="#52677A" points="2116.7572,1233.1348,2120.7572,1243.1348,2124.7572,1233.1348,2120.7572,1237.1348" style="stroke:#52677A;stroke-width:1.25;"/><line style="stroke:#52677A;stroke-width:1.25;" x1="2120.7572" x2="2120.7572" y1="958.0923" y2="1537.1279"/><line style="stroke:#52677A;stroke-width:1.25;" x1="2120.7572" x2="1858.7892" y1="1537.1279" y2="1537.1279"/><polygon fill="#52677A" points="1868.7892,1533.1279,1858.7892,1537.1279,1868.7892,1541.1279,1864.7892,1537.1279" style="stroke:#52677A;stroke-width:1;"/><line style="stroke:#52677A;stroke-width:1.25;" x1="1846.7892" x2="1846.7892" y1="911.0923" y2="946.0923"/><polygon fill="#52677A" points="1842.7892,936.0923,1846.7892,946.0923,1850.7892,936.0923,1846.7892,940.0923" style="stroke:#52677A;stroke-width:1;"/><line style="stroke:#52677A;stroke-width:1.25;" x1="1986.1509" x2="1846.7892" y1="842.9937" y2="842.9937"/><line style="stroke:#52677A;stroke-width:1.25;" x1="1846.7892" x2="1846.7892" y1="842.9937" y2="874.9937"/><polygon fill="#52677A" points="1842.7892,864.9937,1846.7892,874.9937,1850.7892,864.9937,1846.7892,868.9937" style="stroke:#52677A;stroke-width:1;"/><line style="stroke:#52677A;stroke-width:1.25;" x1="1846.7892" x2="1846.7892" y1="1549.1279" y2="1571.1279"/><line style="stroke:#52677A;stroke-width:1.25;" x1="1846.7892" x2="2030.9023" y1="1571.1279" y2="1571.1279"/><polygon fill="#52677A" points="2020.9023,1567.1279,2030.9023,1571.1279,2020.9023,1575.1279,2024.9023,1571.1279" style="stroke:#52677A;stroke-width:1;"/><line style="stroke:#52677A;stroke-width:1.25;" x1="2042.9023" x2="2042.9023" y1="1583.1279" y2="1603.1279"/><polygon fill="#52677A" points="2038.9023,1593.1279,2042.9023,1603.1279,2046.9023,1593.1279,2042.9023,1597.1279" style="stroke:#52677A;stroke-width:1;"/><line style="stroke:#52677A;stroke-width:1.25;" x1="444.2467" x2="444.2467" y1="376.3032" y2="381.3032"/><line style="stroke:#52677A;stroke-width:1.25;" x1="444.2467" x2="1237.2315" y1="381.3032" y2="381.3032"/><line style="stroke:#52677A;stroke-width:1.25;" x1="1237.2315" x2="1237.2315" y1="381.3032" y2="396.3032"/><polygon fill="#52677A" points="1233.2315,386.3032,1237.2315,396.3032,1241.2315,386.3032,1237.2315,390.3032" style="stroke:#52677A;stroke-width:1;"/><line style="stroke:#52677A;stroke-width:1.25;" x1="1237.2315" x2="1237.2315" y1="448.5005" y2="453.5005"/><line style="stroke:#52677A;stroke-width:1.25;" x1="1237.2315" x2="444.2467" y1="453.5005" y2="453.5005"/><line style="stroke:#52677A;stroke-width:1.25;" x1="444.2467" x2="444.2467" y1="453.5005" y2="468.5005"/><polygon fill="#52677A" points="440.2467,458.5005,444.2467,468.5005,448.2467,458.5005,444.2467,462.5005" style="stroke:#52677A;stroke-width:1;"/><line style="stroke:#52677A;stroke-width:1.25;" x1="444.2467" x2="444.2467" y1="504.5991" y2="509.5991"/><line style="stroke:#52677A;stroke-width:1.25;" x1="444.2467" x2="1237.2315" y1="509.5991" y2="509.5991"/><line style="stroke:#52677A;stroke-width:1.25;" x1="1237.2315" x2="1237.2315" y1="509.5991" y2="524.5991"/><polygon fill="#52677A" points="1233.2315,514.5991,1237.2315,524.5991,1241.2315,514.5991,1237.2315,518.5991" style="stroke:#52677A;stroke-width:1;"/><line style="stroke:#52677A;stroke-width:1.25;" x1="1237.2315" x2="1237.2315" y1="576.7964" y2="581.7964"/><line style="stroke:#52677A;stroke-width:1.25;" x1="1237.2315" x2="444.2467" y1="581.7964" y2="581.7964"/><line style="stroke:#52677A;stroke-width:1.25;" x1="444.2467" x2="444.2467" y1="581.7964" y2="596.7964"/><polygon fill="#52677A" points="440.2467,586.7964,444.2467,596.7964,448.2467,586.7964,444.2467,590.7964" style="stroke:#52677A;stroke-width:1;"/><line style="stroke:#52677A;stroke-width:1.25;" x1="1846.7892" x2="1846.7892" y1="1048.3389" y2="1053.3389"/><line style="stroke:#52677A;stroke-width:1.25;" x1="1846.7892" x2="482.1223" y1="1053.3389" y2="1053.3389"/><line style="stroke:#52677A;stroke-width:1.25;" x1="482.1223" x2="482.1223" y1="1053.3389" y2="1068.3389"/><polygon fill="#52677A" points="478.1223,1058.3389,482.1223,1068.3389,486.1223,1058.3389,482.1223,1062.3389" style="stroke:#52677A;stroke-width:1;"/><line style="stroke:#52677A;stroke-width:1.25;" x1="482.1223" x2="482.1223" y1="1120.5361" y2="1125.5361"/><line style="stroke:#52677A;stroke-width:1.25;" x1="482.1223" x2="1275.1071" y1="1125.5361" y2="1125.5361"/><line style="stroke:#52677A;stroke-width:1.25;" x1="1275.1071" x2="1275.1071" y1="1125.5361" y2="1140.5361"/><polygon fill="#52677A" points="1271.1071,1130.5361,1275.1071,1140.5361,1279.1071,1130.5361,1275.1071,1134.5361" style="stroke:#52677A;stroke-width:1;"/><line style="stroke:#52677A;stroke-width:1.25;" x1="1275.1071" x2="1275.1071" y1="1248.832" y2="1253.832"/><line style="stroke:#52677A;stroke-width:1.25;" x1="1275.1071" x2="482.1223" y1="1253.832" y2="1253.832"/><line style="stroke:#52677A;stroke-width:1.25;" x1="482.1223" x2="482.1223" y1="1253.832" y2="1268.832"/><polygon fill="#52677A" points="478.1223,1258.832,482.1223,1268.832,486.1223,1258.832,482.1223,1262.832" style="stroke:#52677A;stroke-width:1;"/><line style="stroke:#52677A;stroke-width:1.25;" x1="482.1223" x2="482.1223" y1="1505.1279" y2="1512.1033"/><line style="stroke:#52677A;stroke-width:1.25;" x1="482.1223" x2="1846.7892" y1="1512.1033" y2="1512.1033"/><line style="stroke:#52677A;stroke-width:1.25;" x1="1846.7892" x2="1846.7892" y1="1512.1033" y2="1525.1279"/><polygon fill="#52677A" points="1842.7892,1515.1279,1846.7892,1525.1279,1850.7892,1515.1279,1846.7892,1519.1279" style="stroke:#52677A;stroke-width:1;"/><line style="stroke:#52677A;stroke-width:1.25;" x1="2099.6538" x2="2111.6538" y1="842.9937" y2="842.9937"/><line style="stroke:#52677A;stroke-width:1.25;" x1="2111.6538" x2="2111.6538" y1="842.9937" y2="860.9937"/><line style="stroke:#52677A;stroke-width:1.25;" x1="2111.6538" x2="874.3486" y1="860.9937" y2="860.9937"/><line style="stroke:#52677A;stroke-width:1.25;" x1="874.3486" x2="874.3486" y1="860.9937" y2="874.9937"/><polygon fill="#52677A" points="870.3486,864.9937,874.3486,874.9937,878.3486,864.9937,874.3486,868.9937" style="stroke:#52677A;stroke-width:1;"/><line style="stroke:#52677A;stroke-width:1.25;" x1="874.3486" x2="874.3486" y1="927.1909" y2="1553.1279"/><line style="stroke:#52677A;stroke-width:1.25;" x1="874.3486" x2="2072.9023" y1="1553.1279" y2="1553.1279"/><line style="stroke:#52677A;stroke-width:1.25;" x1="2072.9023" x2="2072.9023" y1="1553.1279" y2="1571.1279"/><line style="stroke:#52677A;stroke-width:1.25;" x1="2072.9023" x2="2054.9023" y1="1571.1279" y2="1571.1279"/><polygon fill="#52677A" points="2064.9023,1567.1279,2054.9023,1571.1279,2064.9023,1575.1279,2060.9023,1571.1279" style="stroke:#52677A;stroke-width:1;"/><line style="stroke:#52677A;stroke-width:1.25;" x1="678.2354" x2="678.2354" y1="810.9937" y2="815.9937"/><line style="stroke:#52677A;stroke-width:1.25;" x1="678.2354" x2="2042.9023" y1="815.9937" y2="815.9937"/><line style="stroke:#52677A;stroke-width:1.25;" x1="2042.9023" x2="2042.9023" y1="815.9937" y2="830.9937"/><polygon fill="#52677A" points="2038.9023,820.9937,2042.9023,830.9937,2046.9023,820.9937,2042.9023,824.9937" style="stroke:#52677A;stroke-width:1;"/><line style="stroke:#52677A;stroke-width:1.25;" x1="2042.9023" x2="2042.9023" y1="1639.2266" y2="1644.2266"/><line style="stroke:#52677A;stroke-width:1.25;" x1="2042.9023" x2="678.2354" y1="1644.2266" y2="1644.2266"/><line style="stroke:#52677A;stroke-width:1.25;" x1="678.2354" x2="678.2354" y1="1644.2266" y2="1659.2266"/><polygon fill="#52677A" points="674.2354,1649.2266,678.2354,1659.2266,682.2354,1649.2266,678.2354,1653.2266" style="stroke:#52677A;stroke-width:1;"/><text fill="#244C66" font-family="Arial" font-size="14" lengthAdjust="spacing" textLength="85.6064" x="519.6697" y="91.5947">Cliente Godot</text><text fill="#244C66" font-family="Arial" font-size="14" lengthAdjust="spacing" textLength="147.0342" x="1331.8663" y="91.5947">API NestJS / TypeORM</text><text fill="#244C66" font-family="Arial" font-size="14" lengthAdjust="spacing" textLength="59.9102" x="1890.334" y="91.5947">Professor</text><g class="caption" data-source-line="367"><text fill="#52677A" font-family="Arial" font-size="11" lengthAdjust="spacing" textLength="386.4448" x="884.6286" y="1764.7417">Fluxo AS-IS revisado em 15/09/2026 - atualiza&#231;&#227;o autom&#225;tica em todo o painel</text></g><!--SRC=[VLR1RXit4BtlLqpXYmF8SHh4JYiT2a7MfWwGnh2Ad7mPhIY9BPVSa5p1BVGnDNeeSl2fwANN_R6-uQuiML9waQtTuPitC-yDzOssXQbdYg8g-OoZNkaPprHugUlIP5dKqIXwxxpb6TFCqSZPfIfqgMnqT_R6kxaAmNcwFB-aCneMhgpOBZczxv5NXcFpjzSkaAB0pUECiuAhg9sbtDJtZeQJi-i90bSwCF1LITzUdB_w_lprgzU2oB5cet_dvg_cJqTSHrSs3r4NB97HuOIZYhLL8Bi-6G_pY_oxzSXev5Vq3k_ZEWkHVSpw7nZFFDMbr5ev3zGPc0Cdg4Lj0LKPjcwGMOUpNY-MCIFwk1TzhmFUxYVl8LBRcQeKFf2cJFdHigfvM6ZBn5Fb8x_Cy9u4FylwGogagHURzA57A-Nr7CNvEyk15ZNx6VuYw5aR1fcUq-cFpGCwQj08iiekwvAfS3RK9gP_2kUzaFZX1SMbidGQTFa2BFiJPtIXqHBWXkNK8SS0pz6yg_nDFbmFRwxf9nNY-mcTqy-_LUhZxOUr71onAMg3SoWK7D4D1ShG2le30YxSMRIDxQ_QBeIpa4l8U-DunW4ObSE0H1ziQkj2El9L4hSgYXWzBJ47KLO1pH0YmGTDapP1fe5-SOkMuN46qi2hJVaqqo1XcyULClljQaDldrXkGtKuZ0N1OJSfJsNp9O8VeqbRN_L0CfL9JxqQfAFA14Md5kCz0eLmNdWb9Sd12dKflnAPE6h-DL6N3eE8R9OAel9jP8UBOSspG_p-zS8w3sp-7u_DWPXcsA8yn-ZV93KeyKEX2-DaF-oQPP2rnvxvQRmDXqgZjZKKR3_NCEVMJW8AUIVJE4bFBkbPV5UnPwDmlFa3lGY50yKWgQlDCjfrsVeap_CtLvVhfrMrVkwULFo1IOQO4XQIfwr8NBsttWQTZiRtgBZLycRR7IgZFqvCiNzkhlBa80W2cNlfEzmIQryovbdJQF89mzmwevtZeOO5rAuq4aiXlMtzfA0oA6CtI-U73kjhzWBa9nG-0oRGAg-LY7PZPl7tgdcqs09frXqcoV3mbIkOkdc0YTei_NTAz8KN_dEjLuv2v_gDD8-L90qTTl6hvW5S73fHg2d-EUwtgTUI92WZgq4w1vj1LrsIpklj8v7SNAFHSjFGmlCgyJq6J2ItoTjntf-mMQKwjlCbumesQSbliXpwDwrCMoWn2SQgxTmXCpoRN2L4XS1cfNSedLkFuPtaL-FHUDGVt-jfAbbvBxR7dPG4k0FqPFeZjZsoZZl4TekYasLtiTpXCWiyrIQjwcsQVsIjjjZPhh6WnmAaqb89U9RuxEVhtt0hYzrLqIEZOIs_yvDYWa_vcG3DEIFv6KegvDK0Dxghily0]--></g></svg>